<svg width="156" height="136" viewBox="0 0 156 136" fill="none" xmlns="http://www.w3.org/2000/svg">
<g clip-path="url(#clip0_519_467)">
<path d="M135.485 131.078V117.602C135.485 117.602 140.737 127.156 135.485 131.078Z" fill="#F1F1F1"/>
<path d="M135.81 131.076L125.883 121.963C125.883 121.963 136.473 124.555 135.81 131.076Z" fill="#F1F1F1"/>
<path d="M20.4484 131.078V117.602C20.4484 117.602 15.1966 127.156 20.4484 131.078Z" fill="#F1F1F1"/>
<path d="M20.1246 131.076L30.0519 121.963C30.0519 121.963 19.4622 124.555 20.1246 131.076Z" fill="#F1F1F1"/>
<path d="M110.668 31.1292H109.948V11.418C109.948 9.91989 109.653 8.43641 109.08 7.05229C108.507 5.66817 107.666 4.41053 106.607 3.35118C105.548 2.29182 104.29 1.45149 102.906 0.878172C101.522 0.304852 100.038 0.00976685 98.5401 0.00976563H56.7794C55.2812 0.00976244 53.7977 0.304843 52.4136 0.87816C51.0295 1.45148 49.7719 2.2918 48.7125 3.35115C47.6532 4.41051 46.8128 5.66815 46.2395 7.05226C45.6662 8.43637 45.3711 9.91986 45.3711 11.418V119.555C45.3711 122.581 46.573 125.482 48.7125 127.622C50.852 129.761 53.7537 130.963 56.7794 130.963H98.5401C101.566 130.963 104.467 129.761 106.607 127.622C108.746 125.482 109.948 122.581 109.948 119.555V45.1599H110.668V31.1292Z" fill="#3F3D56"/>
<path d="M99.001 2.97852H93.5498C93.8005 3.59312 93.8962 4.25993 93.8284 4.92023C93.7607 5.58052 93.5316 6.21402 93.1614 6.76492C92.7912 7.31583 92.2911 7.76723 91.7054 8.07936C91.1196 8.3915 90.466 8.55478 89.8022 8.55483H65.8781C65.2143 8.55478 64.5607 8.3915 63.9749 8.07937C63.3892 7.76723 62.8891 7.31583 62.5189 6.76493C62.1487 6.21402 61.9196 5.58051 61.8518 4.92022C61.7841 4.25993 61.8798 3.59311 62.1305 2.97852H57.0391C54.7796 2.97851 52.6126 3.87611 51.0149 5.47383C49.4171 7.07156 48.5195 9.23854 48.5195 11.4981V119.476C48.5195 120.595 48.7399 121.703 49.168 122.737C49.5962 123.77 50.2237 124.709 51.0149 125.501C51.806 126.292 52.7452 126.919 53.7788 127.347C54.8124 127.776 55.9203 127.996 57.0391 127.996H99.001C100.12 127.996 101.228 127.776 102.261 127.347C103.295 126.919 104.234 126.292 105.025 125.501C105.816 124.709 106.444 123.77 106.872 122.737C107.3 121.703 107.521 120.595 107.521 119.476V11.4981C107.521 10.3793 107.3 9.27143 106.872 8.23779C106.444 7.20414 105.816 6.26495 105.025 5.47384C104.234 4.68272 103.295 4.05518 102.261 3.62703C101.228 3.19888 100.12 2.97852 99.001 2.97852Z" fill="white"/>
<path d="M97.9498 126.141H58.0902C53.5103 126.141 49.7842 122.815 49.7842 118.727V113.36C49.7842 110.102 52.7516 107.451 56.399 107.451H99.6411C103.288 107.451 106.256 110.102 106.256 113.36V118.727C106.256 122.815 102.53 126.141 97.9498 126.141Z" fill="#E5E5E5"/>
<path d="M62.28 35.9345H53.3888C53.2296 35.9343 53.0769 35.8709 52.9643 35.7583C52.8516 35.6457 52.7883 35.493 52.7881 35.3337V26.4425C52.7883 26.2833 52.8516 26.1306 52.9643 26.018C53.0769 25.9053 53.2296 25.842 53.3888 25.8418H62.28C62.4393 25.842 62.592 25.9053 62.7046 26.018C62.8172 26.1306 62.8806 26.2833 62.8808 26.4425V35.3337C62.8806 35.493 62.8172 35.6457 62.7046 35.7583C62.592 35.8709 62.4393 35.9343 62.28 35.9345Z" fill="#00BFA6"/>
<path d="M75.737 35.9345H66.8459C66.6866 35.9343 66.5339 35.8709 66.4213 35.7583C66.3087 35.6457 66.2453 35.493 66.2451 35.3337V26.4425C66.2453 26.2833 66.3087 26.1306 66.4213 26.018C66.5339 25.9053 66.6866 25.842 66.8459 25.8418H75.737C75.8963 25.842 76.049 25.9053 76.1616 26.018C76.2742 26.1306 76.3376 26.2833 76.3378 26.4425V35.3337C76.3376 35.493 76.2742 35.6457 76.1616 35.7583C76.049 35.8709 75.8963 35.9343 75.737 35.9345Z" fill="#E5E5E5"/>
<path d="M89.1941 35.9345H80.3029C80.1436 35.9343 79.9909 35.8709 79.8783 35.7583C79.7657 35.6457 79.7023 35.493 79.7021 35.3337V26.4425C79.7023 26.2833 79.7657 26.1306 79.8783 26.018C79.9909 25.9053 80.1436 25.842 80.3029 25.8418H89.1941C89.3533 25.842 89.506 25.9053 89.6186 26.018C89.7313 26.1306 89.7946 26.2833 89.7948 26.4425V35.3337C89.7946 35.493 89.7313 35.6457 89.6186 35.7583C89.506 35.8709 89.3533 35.9343 89.1941 35.9345Z" fill="#E5E5E5"/>
<path d="M102.651 35.9345H93.7599C93.6007 35.9343 93.448 35.8709 93.3353 35.7583C93.2227 35.6457 93.1594 35.493 93.1592 35.3337V26.4425C93.1594 26.2833 93.2227 26.1306 93.3353 26.018C93.448 25.9053 93.6007 25.842 93.7599 25.8418H102.651C102.81 25.842 102.963 25.9053 103.076 26.018C103.188 26.1306 103.252 26.2833 103.252 26.4425V35.3337C103.252 35.493 103.188 35.6457 103.076 35.7583C102.963 35.8709 102.81 35.9343 102.651 35.9345Z" fill="#E5E5E5"/>
<path d="M62.2478 52.3954H53.3566C53.1973 52.3952 53.0446 52.3319 52.932 52.2192C52.8194 52.1066 52.756 51.9539 52.7559 51.7947V42.9035C52.756 42.7442 52.8194 42.5915 52.932 42.4789C53.0446 42.3663 53.1973 42.3029 53.3566 42.3027H62.2478C62.407 42.3029 62.5597 42.3663 62.6724 42.4789C62.785 42.5915 62.8483 42.7442 62.8485 42.9035V51.7947C62.8483 51.9539 62.785 52.1066 62.6724 52.2192C62.5597 52.3319 62.407 52.3952 62.2478 52.3954Z" fill="#E5E5E5"/>
<path d="M75.7048 52.3954H66.8136C66.6544 52.3952 66.5017 52.3319 66.389 52.2192C66.2764 52.1066 66.2131 51.9539 66.2129 51.7947V42.9035C66.2131 42.7442 66.2764 42.5915 66.389 42.4789C66.5017 42.3663 66.6544 42.3029 66.8136 42.3027H75.7048C75.8641 42.3029 76.0168 42.3663 76.1294 42.4789C76.242 42.5915 76.3054 42.7442 76.3056 42.9035V51.7947C76.3054 51.9539 76.242 52.1066 76.1294 52.2192C76.0168 52.3319 75.8641 52.3952 75.7048 52.3954Z" fill="#E5E5E5"/>
<path d="M89.1619 52.3954H80.2707C80.1114 52.3952 79.9587 52.3319 79.8461 52.2192C79.7335 52.1066 79.6701 51.9539 79.6699 51.7947V42.9035C79.6701 42.7442 79.7335 42.5915 79.8461 42.4789C79.9587 42.3663 80.1114 42.3029 80.2707 42.3027H89.1619C89.3211 42.3029 89.4738 42.3663 89.5864 42.4789C89.6991 42.5915 89.7624 42.7442 89.7626 42.9035V51.7947C89.7624 51.9539 89.6991 52.1066 89.5864 52.2192C89.4738 52.3319 89.3211 52.3952 89.1619 52.3954Z" fill="#00BFA6"/>
<path d="M102.619 52.3954H93.7277C93.5684 52.3952 93.4157 52.3319 93.3031 52.2192C93.1905 52.1066 93.1271 51.9539 93.127 51.7947V42.9035C93.1271 42.7442 93.1905 42.5915 93.3031 42.4789C93.4157 42.3663 93.5684 42.3029 93.7277 42.3027H102.619C102.778 42.3029 102.931 42.3663 103.043 42.4789C103.156 42.5915 103.219 42.7442 103.22 42.9035V51.7947C103.219 51.9539 103.156 52.1066 103.043 52.2192C102.931 52.3319 102.778 52.3952 102.619 52.3954Z" fill="#00BFA6"/>
<path d="M62.2165 68.8563H53.3254C53.1661 68.8562 53.0134 68.7928 52.9008 68.6802C52.7882 68.5676 52.7248 68.4149 52.7246 68.2556V59.3644C52.7248 59.2052 52.7882 59.0525 52.9008 58.9398C53.0134 58.8272 53.1661 58.7639 53.3254 58.7637H62.2165C62.3758 58.7639 62.5285 58.8272 62.6411 58.9398C62.7537 59.0525 62.8171 59.2052 62.8173 59.3644V68.2556C62.8171 68.4149 62.7537 68.5676 62.6411 68.6802C62.5285 68.7928 62.3758 68.8562 62.2165 68.8563Z" fill="#E5E5E5"/>
<path d="M75.6735 68.8563H66.7824C66.6231 68.8562 66.4704 68.7928 66.3578 68.6802C66.2452 68.5676 66.1818 68.4149 66.1816 68.2556V59.3644C66.1818 59.2052 66.2452 59.0525 66.3578 58.9398C66.4704 58.8272 66.6231 58.7639 66.7824 58.7637H75.6735C75.8328 58.7639 75.9855 58.8272 76.0981 58.9398C76.2108 59.0525 76.2741 59.2052 76.2743 59.3644V68.2556C76.2741 68.4149 76.2108 68.5676 76.0981 68.6802C75.9855 68.7928 75.8328 68.8562 75.6735 68.8563Z" fill="#E5E5E5"/>
<path d="M89.1306 68.8563H80.2394C80.0802 68.8562 79.9275 68.7928 79.8148 68.6802C79.7022 68.5676 79.6389 68.4149 79.6387 68.2556V59.3644C79.6389 59.2052 79.7022 59.0525 79.8148 58.9398C79.9275 58.8272 80.0802 58.7639 80.2394 58.7637H89.1306C89.2898 58.7639 89.4425 58.8272 89.5552 58.9398C89.6678 59.0525 89.7311 59.2052 89.7313 59.3644V68.2556C89.7311 68.4149 89.6678 68.5676 89.5552 68.6802C89.4425 68.7928 89.2898 68.8562 89.1306 68.8563Z" fill="#E5E5E5"/>
<path d="M102.587 68.8563H93.6955C93.5362 68.8562 93.3835 68.7928 93.2709 68.6802C93.1583 68.5676 93.0949 68.4149 93.0947 68.2556V59.3644C93.0949 59.2052 93.1583 59.0525 93.2709 58.9398C93.3835 58.8272 93.5362 58.7639 93.6955 58.7637H102.587C102.746 58.7639 102.899 58.8272 103.011 58.9398C103.124 59.0525 103.187 59.2052 103.187 59.3644V68.2556C103.187 68.4149 103.124 68.5676 103.011 68.6802C102.899 68.7928 102.746 68.8562 102.587 68.8563Z" fill="#E5E5E5"/>
<path d="M62.1843 85.3173H53.2931C53.1339 85.3171 52.9812 85.2537 52.8685 85.1411C52.7559 85.0285 52.6926 84.8758 52.6924 84.7165V75.8254C52.6926 75.6661 52.7559 75.5134 52.8685 75.4008C52.9812 75.2882 53.1339 75.2248 53.2931 75.2246H62.1843C62.3436 75.2248 62.4963 75.2882 62.6089 75.4008C62.7215 75.5134 62.7849 75.6661 62.785 75.8254V84.7165C62.7849 84.8758 62.7215 85.0285 62.6089 85.1411C62.4963 85.2537 62.3436 85.3171 62.1843 85.3173Z" fill="#E5E5E5"/>
<path d="M75.6413 85.3173H66.7502C66.5909 85.3171 66.4382 85.2537 66.3256 85.1411C66.213 85.0285 66.1496 84.8758 66.1494 84.7165V75.8254C66.1496 75.6661 66.213 75.5134 66.3256 75.4008C66.4382 75.2882 66.5909 75.2248 66.7502 75.2246H75.6413C75.8006 75.2248 75.9533 75.2882 76.0659 75.4008C76.1786 75.5134 76.2419 75.6661 76.2421 75.8254V84.7165C76.2419 84.8758 76.1786 85.0285 76.0659 85.1411C75.9533 85.2537 75.8006 85.3171 75.6413 85.3173Z" fill="#E5E5E5"/>
<path d="M89.0984 85.3173H80.2072C80.0479 85.3171 79.8952 85.2537 79.7826 85.1411C79.67 85.0285 79.6066 84.8758 79.6064 84.7165V75.8254C79.6066 75.6661 79.67 75.5134 79.7826 75.4008C79.8952 75.2882 80.0479 75.2248 80.2072 75.2246H89.0984C89.2576 75.2248 89.4103 75.2882 89.523 75.4008C89.6356 75.5134 89.6989 75.6661 89.6991 75.8254V84.7165C89.6989 84.8758 89.6356 85.0285 89.523 85.1411C89.4103 85.2537 89.2576 85.3171 89.0984 85.3173Z" fill="#E5E5E5"/>
<path d="M102.555 85.3173H93.6642C93.505 85.3171 93.3523 85.2537 93.2396 85.1411C93.127 85.0285 93.0637 84.8758 93.0635 84.7165V75.8254C93.0637 75.6661 93.127 75.5134 93.2396 75.4008C93.3523 75.2882 93.505 75.2248 93.6642 75.2246H102.555C102.715 75.2248 102.867 75.2882 102.98 75.4008C103.093 75.5134 103.156 75.6661 103.156 75.8254V84.7165C103.156 84.8758 103.093 85.0285 102.98 85.1411C102.867 85.2537 102.715 85.3171 102.555 85.3173Z" fill="#E5E5E5"/>
<path d="M62.28 122.083H53.3888C53.2296 122.083 53.0769 122.019 52.9643 121.907C52.8516 121.794 52.7883 121.641 52.7881 121.482V112.591C52.7883 112.432 52.8516 112.279 52.9643 112.166C53.0769 112.054 53.2296 111.99 53.3888 111.99H62.28C62.4393 111.99 62.592 112.054 62.7046 112.166C62.8172 112.279 62.8806 112.432 62.8808 112.591V121.482C62.8806 121.641 62.8172 121.794 62.7046 121.907C62.592 122.019 62.4393 122.083 62.28 122.083Z" fill="white"/>
<path d="M75.737 122.083H66.8459C66.6866 122.083 66.5339 122.019 66.4213 121.907C66.3087 121.794 66.2453 121.641 66.2451 121.482V112.591C66.2453 112.432 66.3087 112.279 66.4213 112.166C66.5339 112.054 66.6866 111.99 66.8459 111.99H75.737C75.8963 111.99 76.049 112.054 76.1616 112.166C76.2742 112.279 76.3376 112.432 76.3378 112.591V121.482C76.3376 121.641 76.2742 121.794 76.1616 121.907C76.049 122.019 75.8963 122.083 75.737 122.083Z" fill="white"/>
<path d="M89.1941 122.083H80.3029C80.1436 122.083 79.9909 122.019 79.8783 121.907C79.7657 121.794 79.7023 121.641 79.7021 121.482V112.591C79.7023 112.432 79.7657 112.279 79.8783 112.166C79.9909 112.054 80.1436 111.99 80.3029 111.99H89.1941C89.3533 111.99 89.506 112.054 89.6186 112.166C89.7313 112.279 89.7946 112.432 89.7948 112.591V121.482C89.7946 121.641 89.7313 121.794 89.6186 121.907C89.506 122.019 89.3533 122.083 89.1941 122.083Z" fill="white"/>
<path d="M102.651 122.083H93.7599C93.6007 122.083 93.448 122.019 93.3353 121.907C93.2227 121.794 93.1594 121.641 93.1592 121.482V112.591C93.1594 112.432 93.2227 112.279 93.3353 112.166C93.448 112.054 93.6007 111.99 93.7599 111.99H102.651C102.81 111.99 102.963 112.054 103.076 112.166C103.188 112.279 103.252 112.432 103.252 112.591V121.482C103.252 121.641 103.188 121.794 103.076 121.907C102.963 122.019 102.81 122.083 102.651 122.083Z" fill="white"/>
<path d="M73.6624 103.339C74.326 103.339 74.864 102.801 74.864 102.137C74.864 101.473 74.326 100.936 73.6624 100.936C72.9989 100.936 72.4609 101.473 72.4609 102.137C72.4609 102.801 72.9989 103.339 73.6624 103.339Z" fill="#E5E5E5"/>
<path d="M77.9876 103.339C78.6512 103.339 79.1891 102.801 79.1891 102.137C79.1891 101.473 78.6512 100.936 77.9876 100.936C77.3241 100.936 76.7861 101.473 76.7861 102.137C76.7861 102.801 77.3241 103.339 77.9876 103.339Z" fill="#E5E5E5"/>
<path d="M82.3138 103.339C82.9774 103.339 83.5154 102.801 83.5154 102.137C83.5154 101.473 82.9774 100.936 82.3138 100.936C81.6502 100.936 81.1123 101.473 81.1123 102.137C81.1123 102.801 81.6502 103.339 82.3138 103.339Z" fill="#E5E5E5"/>
<path d="M155.237 131.158H0.802501C0.753094 131.158 0.70571 131.138 0.670774 131.103C0.635838 131.068 0.616211 131.021 0.616211 130.971C0.616211 130.922 0.635838 130.875 0.670774 130.84C0.70571 130.805 0.753094 130.785 0.802501 130.785H155.237C155.286 130.785 155.334 130.805 155.369 130.84C155.404 130.875 155.423 130.922 155.423 130.971C155.423 131.021 155.404 131.068 155.369 131.103C155.334 131.138 155.286 131.158 155.237 131.158Z" fill="#CBCBCB"/>
<path d="M61.4146 94.4782C61.6659 94.227 61.8591 93.9237 61.9806 93.5897C62.102 93.2557 62.1488 92.8992 62.1175 92.5452C62.0863 92.1911 61.9778 91.8483 61.7997 91.5407C61.6216 91.2332 61.3783 90.9684 61.0868 90.7651L63.4332 82.4512L59.1552 83.8117L57.5829 91.4982C57.2738 92.0105 57.1633 92.6184 57.2725 93.2067C57.3816 93.795 57.7028 94.3228 58.1751 94.6901C58.6474 95.0575 59.238 95.2388 59.8351 95.1997C60.4322 95.1607 60.9942 94.904 61.4146 94.4782Z" fill="#FFB7B7"/>
<path d="M62.6314 89.381C62.5549 89.3957 62.4772 89.4022 62.3994 89.4006L58.2955 89.3184C58.1411 89.3153 57.9891 89.2794 57.8496 89.2129C57.7101 89.1465 57.5864 89.0512 57.4867 88.9332C57.3869 88.8152 57.3134 88.6774 57.2711 88.5288C57.2288 88.3803 57.2186 88.2244 57.2412 88.0716L61.4043 59.9435C61.5286 59.1299 61.9398 58.3876 62.5635 57.8506C63.1873 57.3137 63.9825 57.0175 64.8055 57.0156C65.3252 57.0169 65.8378 57.1363 66.3045 57.3647C66.7713 57.5931 67.1801 57.9246 67.5 58.3342C67.8199 58.7437 68.0426 59.2206 68.1512 59.7288C68.2598 60.237 68.2516 60.7632 68.127 61.2677L65.1761 73.2195L63.5026 88.4321C63.4784 88.6628 63.3806 88.8795 63.2237 89.0504C63.0668 89.2213 62.8591 89.3372 62.6314 89.381Z" fill="#3F3D56"/>
<path d="M64.3471 133.786H66.631L67.7176 124.977L64.3467 124.977L64.3471 133.786Z" fill="#FFB7B7"/>
<path d="M63.7646 133.039L68.2624 133.039H68.2626C69.0228 133.039 69.7518 133.341 70.2894 133.879C70.8269 134.416 71.1289 135.145 71.129 135.905V135.999L63.7648 135.999L63.7646 133.039Z" fill="#2F2E41"/>
<path d="M74.0859 133.043L76.3555 133.298L78.4172 124.665L75.0673 124.289L74.0859 133.043Z" fill="#FFB7B7"/>
<path d="M73.5895 132.238L78.0593 132.739L78.0595 132.739C78.8149 132.824 79.5057 133.206 79.98 133.8C80.4543 134.394 80.6732 135.152 80.5885 135.907L80.5781 136L73.2598 135.179L73.5895 132.238Z" fill="#2F2E41"/>
<path d="M62.2031 84.7635C62.2031 84.7635 59.0719 91.6951 61.837 96.1974L63.4843 131.251H67.2666L70.9359 102.935L77.4561 111.318L73.4837 130.884L78.1096 131.144L84.5351 111.318C84.5351 111.318 79.5988 89.4573 77.9686 88.9309L76.8972 83.9336L62.2031 84.7635Z" fill="#2F2E41"/>
<path d="M60.8098 90.8495C60.8098 90.8495 57.9891 94.0868 65.4407 95.2046C72.8923 96.3223 80.7165 94.6457 80.9028 92.4102C81.089 90.1748 60.8098 90.8495 60.8098 90.8495Z" fill="#CBCBCB"/>
<path d="M98.1644 50.6901C98.1528 51.0061 98.0721 51.3158 97.928 51.5972C97.7838 51.8787 97.5797 52.1251 97.33 52.3192C97.0803 52.5132 96.7911 52.6501 96.4828 52.7203C96.1744 52.7905 95.8544 52.7922 95.5454 52.7253L92.7287 56.7873L89.8428 55.6776L93.901 49.9972C94.0478 49.4854 94.3772 49.0453 94.8268 48.7601C95.2764 48.475 95.815 48.3646 96.3405 48.45C96.866 48.5355 97.3419 48.8107 97.6781 49.2235C98.0142 49.6364 98.1872 50.1582 98.1644 50.6901Z" fill="#FFB7B7"/>
<path d="M74.3428 55.9168L70.3604 54.1152L65.258 54.48C65.258 54.48 59.1066 61.672 61.5284 68.5647L60.0381 92.5961C69.5389 95.2042 73.8576 90.3126 80.7163 92.4098L78.5978 65.7015L74.3428 55.9168Z" fill="#3F3D56"/>
<path d="M71.6816 57.6657L74.3432 55.9158C74.3432 55.9158 78.0404 55.357 79.5183 56.7908C79.5183 56.7908 84.5345 57.2106 85.7459 58.4628L87.0798 58.7635L91.5111 53.0254L94.2227 54.4988L90.3106 65.1173L78.5982 65.7005L71.6816 57.6657Z" fill="#3F3D56"/>
<path d="M72.6003 52.0948C75.6467 50.4295 76.7663 46.6099 75.101 43.5635C73.4357 40.5171 69.6161 39.3975 66.5697 41.0628C63.5233 42.7281 62.4037 46.5477 64.069 49.5941C65.7343 52.6405 69.5539 53.7601 72.6003 52.0948Z" fill="#FFB7B7"/>
<path d="M64.1468 41.6638C65.2689 39.6456 66.6711 38.3388 68.9798 38.386C71.2884 38.4332 73.2855 38.3419 74.3242 40.4042C74.5988 39.8902 74.7363 39.3141 74.7234 38.7315C75.0371 38.9351 75.2843 39.2261 75.4346 39.5686C75.5848 39.911 75.6316 40.2899 75.569 40.6586C75.7711 40.5403 75.9402 40.3731 76.0609 40.1725C76.1816 39.9718 76.2499 39.7441 76.2598 39.5101C77.0303 39.7665 77.2306 40.8524 76.8407 41.5647C76.4509 42.277 75.6863 42.6889 74.9527 43.0371C74.2191 43.3853 74.5577 45.227 74.0787 45.8827C73.7444 46.3403 73.5915 46.9011 73.3662 47.4211C73.3567 47.4417 73.3407 47.4584 73.3206 47.4687C72.804 47.7568 72.478 48.2714 72.5692 48.8557C72.58 48.8995 72.5774 48.9456 72.5618 48.9879C71.9079 50.2199 71.2021 51.5088 70.0168 52.2439C69.0657 52.8182 67.9265 52.9943 66.8464 52.734C65.6348 52.4443 64.5875 51.6411 63.8322 50.6504C63.077 49.6598 62.5911 48.489 62.2261 47.298C61.9023 46.2415 61.6668 45.1118 61.9235 44.037C62.1803 42.9622 63.0501 41.967 64.152 41.8839" fill="#2F2E41"/>
</g>
<defs>
<clipPath id="clip0_519_467">
<rect width="154.807" height="135.99" fill="white" transform="translate(0.616211 0.00976562)"/>
</clipPath>
</defs>
</svg>
