<svg width="139" height="128" viewBox="0 0 139 128" fill="none" xmlns="http://www.w3.org/2000/svg">
<g clip-path="url(#clip0_519_417)">
<path d="M119.584 12.6085L3.5293 46.4219L6.60324 56.9723L122.658 23.1589L119.584 12.6085Z" fill="#3F3D56"/>
<path d="M17.3944 94.8824L0.288942 36.1731C0.162127 35.7379 0.21342 35.27 0.43153 34.8726C0.64964 34.4751 1.0167 34.1806 1.45197 34.0538L114.693 1.06006C115.128 0.933675 115.596 0.985142 115.993 1.20317C116.39 1.42121 116.685 1.78799 116.812 2.223L131.966 54.2352L131.497 54.3719L116.343 2.35965C116.252 2.04905 116.042 1.78722 115.758 1.6315C115.474 1.47579 115.14 1.4389 114.829 1.52891L1.58859 34.5226C1.27768 34.6132 1.0155 34.8236 0.859703 35.1075C0.70391 35.3914 0.667272 35.7256 0.75785 36.0365L17.8633 94.7458L17.3944 94.8824Z" fill="#3F3D56"/>
<path d="M106.902 54.4784C106.558 54.478 106.224 54.3664 105.949 54.1603C105.674 53.9541 105.474 53.6645 105.377 53.3348L102.508 43.4878C102.391 43.0836 102.439 42.6494 102.641 42.2805C102.844 41.9116 103.184 41.638 103.588 41.5198L113.435 38.6508C113.839 38.5336 114.274 38.5814 114.643 38.7839C115.011 38.9864 115.285 39.327 115.403 39.7309L118.272 49.5779C118.389 49.9821 118.342 50.4162 118.139 50.7851C117.937 51.1541 117.596 51.4276 117.192 51.5458L107.345 54.4148C107.201 54.4569 107.052 54.4783 106.902 54.4784Z" fill="#00BFA6"/>
<path d="M17.1296 36.3561C17.1001 36.2549 17.065 36.1555 17.0245 36.0582C16.7492 35.3899 16.2366 34.847 15.5853 34.5337C14.934 34.2205 14.1899 34.1589 13.496 34.361C12.8021 34.563 12.2073 35.0143 11.8259 35.6283C11.4446 36.2422 11.3035 36.9754 11.4299 37.687C11.4477 37.7908 11.4713 37.8936 11.5008 37.9947C11.6791 38.6034 12.0498 39.138 12.5574 39.5183C13.0649 39.8987 13.6821 40.1044 14.3164 40.1046C14.5933 40.1052 14.8688 40.0658 15.1345 39.9874C15.88 39.7696 16.5087 39.2649 16.8827 38.5842C17.2567 37.9035 17.3455 37.1022 17.1296 36.3561ZM14.9977 39.5185C14.376 39.699 13.708 39.6255 13.1404 39.3142C12.5727 39.0029 12.1517 38.4792 11.9696 37.858C11.941 37.7568 11.9182 37.654 11.9012 37.5503C11.8096 36.964 11.9347 36.3644 12.2531 35.8636C12.5715 35.3629 13.0613 34.9952 13.6311 34.8294C14.2009 34.6636 14.8116 34.7111 15.3489 34.9628C15.8863 35.2146 16.3135 35.6535 16.5508 36.1974C16.595 36.2929 16.6318 36.3917 16.6607 36.4929C16.8409 37.1146 16.767 37.7825 16.4552 38.3498C16.1434 38.9171 15.6192 39.3374 14.9977 39.5185V39.5185Z" fill="#00BFA6"/>
<path d="M9.94261 38.4475C9.78633 37.9109 9.80134 37.3388 9.98555 36.811C10.1698 36.2832 10.514 35.8261 10.9703 35.5032C10.5428 35.4824 10.1165 35.564 9.72693 35.7413C9.33736 35.9185 8.99579 36.1863 8.73067 36.5224C8.46556 36.8584 8.28458 37.2529 8.2028 37.673C8.12103 38.0931 8.14083 38.5267 8.26056 38.9376C8.38028 39.3486 8.59647 39.7249 8.8911 40.0354C9.18574 40.3458 9.5503 40.5814 9.9544 40.7224C10.3585 40.8635 10.7905 40.9059 11.2143 40.8462C11.6381 40.7865 12.0415 40.6263 12.3909 40.3791C11.8326 40.3519 11.2967 40.1512 10.8578 39.8049C10.419 39.4587 10.0991 38.9842 9.94261 38.4475Z" fill="#00BFA6"/>
<path d="M85.856 50.5509C85.804 50.364 85.7157 50.1893 85.5961 50.0365C85.4765 49.8838 85.328 49.7562 85.159 49.6609C84.9901 49.5657 84.804 49.5046 84.6114 49.4814C84.4188 49.4581 84.2235 49.473 84.0367 49.5253L67.8241 54.0601L66.0781 54.5485H77.0428L78.7888 54.0601L84.8328 52.3702C85.2095 52.2644 85.5289 52.0133 85.7208 51.6722C85.9126 51.3311 85.9612 50.9279 85.856 50.5509Z" fill="#CCCCCC"/>
<path d="M74.3858 47.1638C74.2801 46.7869 74.0291 46.4673 73.688 46.2755C73.3468 46.0836 72.9434 46.0351 72.5664 46.1406L48.2391 52.944C47.8992 53.0403 47.6048 53.2549 47.4092 53.5491C47.2135 53.8433 47.1294 54.1977 47.1719 54.5485H53.4699L55.2183 54.06L73.3626 48.9855C73.7396 48.8793 74.0592 48.6279 74.251 48.2863C74.4428 47.9447 74.4913 47.541 74.3858 47.1638Z" fill="#CCCCCC"/>
<path d="M137.014 54.0605H19.0649C18.6117 54.0611 18.1772 54.2413 17.8567 54.5618C17.5362 54.8823 17.356 55.3168 17.3555 55.77V125.612C17.356 126.065 17.5362 126.499 17.8567 126.82C18.1772 127.14 18.6117 127.321 19.0649 127.321H137.014C137.468 127.321 137.902 127.14 138.223 126.82C138.543 126.499 138.723 126.065 138.724 125.612V55.77C138.723 55.3168 138.543 54.8823 138.223 54.5618C137.902 54.2413 137.468 54.0611 137.014 54.0605ZM138.235 125.612C138.235 125.936 138.107 126.246 137.878 126.475C137.649 126.704 137.338 126.833 137.014 126.833H19.0649C18.7411 126.833 18.4306 126.704 18.2016 126.475C17.9727 126.246 17.844 125.936 17.8439 125.612V55.77C17.844 55.4462 17.9727 55.1357 18.2016 54.9067C18.4306 54.6778 18.7411 54.5491 19.0649 54.549H137.014C137.338 54.5491 137.649 54.6778 137.878 54.9067C138.107 55.1357 138.235 55.4462 138.235 55.77V125.612Z" fill="#3F3D56"/>
<path d="M30.5418 63.5835C29.9622 63.5835 29.3956 63.4116 28.9137 63.0896C28.4318 62.7676 28.0562 62.31 27.8344 61.7745C27.6126 61.239 27.5546 60.6498 27.6676 60.0814C27.7807 59.5129 28.0598 58.9908 28.4696 58.581C28.8795 58.1711 29.4016 57.892 29.9701 57.779C30.5385 57.6659 31.1277 57.7239 31.6632 57.9457C32.1986 58.1675 32.6563 58.5431 32.9783 59.025C33.3003 59.5069 33.4722 60.0735 33.4722 60.6531C33.4713 61.43 33.1623 62.1749 32.6129 62.7242C32.0635 63.2736 31.3187 63.5826 30.5418 63.5835ZM30.5418 58.2111C30.0588 58.2111 29.5866 58.3543 29.185 58.6226C28.7835 58.8909 28.4705 59.2723 28.2856 59.7186C28.1008 60.1648 28.0524 60.6558 28.1467 61.1295C28.2409 61.6032 28.4735 62.0383 28.815 62.3799C29.1565 62.7214 29.5916 62.954 30.0653 63.0482C30.539 63.1424 31.0301 63.094 31.4763 62.9092C31.9225 62.7244 32.3039 62.4114 32.5722 62.0098C32.8405 61.6082 32.9838 61.1361 32.9838 60.6531C32.983 60.0056 32.7255 59.3849 32.2677 58.9271C31.8099 58.4693 31.1892 58.2118 30.5418 58.2111Z" fill="#00BFA6"/>
<path d="M25.9864 60.653C25.9865 60.094 26.1609 59.549 26.4854 59.0938C26.8099 58.6387 27.2682 58.296 27.7966 58.1137C27.392 57.9741 26.9599 57.9332 26.5363 57.9944C26.1127 58.0557 25.7099 58.2172 25.3613 58.4657C25.0128 58.7141 24.7287 59.0422 24.5327 59.4227C24.3367 59.8032 24.2344 60.225 24.2344 60.653C24.2344 61.081 24.3367 61.5028 24.5327 61.8833C24.7287 62.2638 25.0128 62.5919 25.3613 62.8404C25.7099 63.0888 26.1127 63.2504 26.5363 63.3116C26.9599 63.3728 27.392 63.332 27.7966 63.1924C27.2682 63.01 26.8099 62.6674 26.4854 62.2122C26.1609 61.757 25.9865 61.212 25.9864 60.653Z" fill="#00BFA6"/>
<path d="M42.4205 95.2762C41.8378 95.2755 41.2791 95.0438 40.8671 94.6317C40.4551 94.2197 40.2233 93.6611 40.2227 93.0784V86.4849C40.2227 85.902 40.4542 85.343 40.8664 84.9308C41.2785 84.5187 41.8376 84.2871 42.4205 84.2871C43.0034 84.2871 43.5624 84.5187 43.9746 84.9308C44.3867 85.343 44.6183 85.902 44.6183 86.4849V93.0784C44.6176 93.6611 44.3859 94.2197 43.9738 94.6317C43.5618 95.0437 43.0032 95.2755 42.4205 95.2762Z" fill="#00BFA6"/>
<path d="M48.2808 95.2762C47.6981 95.2755 47.1395 95.0438 46.7275 94.6317C46.3154 94.2197 46.0837 93.6611 46.083 93.0784V86.4849C46.083 85.902 46.3146 85.343 46.7267 84.9308C47.1389 84.5187 47.6979 84.2871 48.2808 84.2871C48.8637 84.2871 49.4227 84.5187 49.8349 84.9308C50.2471 85.343 50.4786 85.902 50.4786 86.4849V93.0784C50.478 93.6611 50.2462 94.2197 49.8342 94.6317C49.4221 95.0437 48.8635 95.2755 48.2808 95.2762Z" fill="#00BFA6"/>
<path d="M54.1422 95.2762C53.5595 95.2755 53.0008 95.0438 52.5888 94.6317C52.1768 94.2197 51.945 93.6611 51.9443 93.0784V86.4849C51.9443 85.902 52.1759 85.343 52.5881 84.9308C53.0002 84.5187 53.5593 84.2871 54.1422 84.2871C54.725 84.2871 55.2841 84.5187 55.6962 84.9308C56.1084 85.343 56.34 85.902 56.34 86.4849V93.0784C56.3393 93.6611 56.1075 94.2197 55.6955 94.6317C55.2835 95.0437 54.7248 95.2755 54.1422 95.2762Z" fill="#00BFA6"/>
<path d="M63.1773 95.2762C62.5946 95.2755 62.036 95.0438 61.624 94.6317C61.2119 94.2197 60.9802 93.6611 60.9795 93.0784V86.4849C60.9795 85.902 61.211 85.343 61.6232 84.9308C62.0354 84.5187 62.5944 84.2871 63.1773 84.2871C63.7602 84.2871 64.3192 84.5187 64.7314 84.9308C65.1436 85.343 65.3751 85.902 65.3751 86.4849V93.0784C65.3744 93.6611 65.1427 94.2197 64.7307 94.6317C64.3186 95.0437 63.76 95.2755 63.1773 95.2762Z" fill="#00BFA6"/>
<path d="M69.0386 95.2762C68.4559 95.2755 67.8973 95.0438 67.4853 94.6317C67.0733 94.2197 66.8415 93.6611 66.8408 93.0784V86.4849C66.8408 85.902 67.0724 85.343 67.4845 84.9308C67.8967 84.5187 68.4557 84.2871 69.0386 84.2871C69.6215 84.2871 70.1806 84.5187 70.5927 84.9308C71.0049 85.343 71.2365 85.902 71.2365 86.4849V93.0784C71.2358 93.6611 71.004 94.2197 70.592 94.6317C70.18 95.0437 69.6213 95.2755 69.0386 95.2762Z" fill="#00BFA6"/>
<path d="M74.899 95.2762C74.3163 95.2755 73.7577 95.0438 73.3456 94.6317C72.9336 94.2197 72.7018 93.6611 72.7012 93.0784V86.4849C72.7012 85.902 72.9327 85.343 73.3449 84.9308C73.7571 84.5187 74.3161 84.2871 74.899 84.2871C75.4819 84.2871 76.0409 84.5187 76.4531 84.9308C76.8653 85.343 77.0968 85.902 77.0968 86.4849V93.0784C77.0961 93.6611 76.8644 94.2197 76.4524 94.6317C76.0403 95.0437 75.4817 95.2755 74.899 95.2762Z" fill="#00BFA6"/>
<path d="M83.9341 95.2762C83.3515 95.2755 82.7928 95.0438 82.3808 94.6317C81.9688 94.2197 81.737 93.6611 81.7363 93.0784V86.4849C81.7363 85.902 81.9679 85.343 82.3801 84.9308C82.7922 84.5187 83.3512 84.2871 83.9341 84.2871C84.517 84.2871 85.0761 84.5187 85.4882 84.9308C85.9004 85.343 86.132 85.902 86.132 86.4849V93.0784C86.1313 93.6611 85.8995 94.2197 85.4875 94.6317C85.0755 95.0437 84.5168 95.2755 83.9341 95.2762Z" fill="#00BFA6"/>
<path d="M89.7955 95.2762C89.2128 95.2755 88.6542 95.0438 88.2421 94.6317C87.8301 94.2197 87.5983 93.6611 87.5977 93.0784V86.4849C87.5977 85.902 87.8292 85.343 88.2414 84.9308C88.6536 84.5187 89.2126 84.2871 89.7955 84.2871C90.3784 84.2871 90.9374 84.5187 91.3496 84.9308C91.7617 85.343 91.9933 85.902 91.9933 86.4849V93.0784C91.9926 93.6611 91.7609 94.2197 91.3488 94.6317C90.9368 95.0437 90.3782 95.2755 89.7955 95.2762Z" fill="#00BFA6"/>
<path d="M95.6558 95.2762C95.0731 95.2755 94.5145 95.0438 94.1025 94.6317C93.6905 94.2197 93.4587 93.6611 93.458 93.0784V86.4849C93.458 85.902 93.6896 85.343 94.1017 84.9308C94.5139 84.5187 95.0729 84.2871 95.6558 84.2871C96.2387 84.2871 96.7977 84.5187 97.2099 84.9308C97.6221 85.343 97.8536 85.902 97.8536 86.4849V93.0784C97.853 93.6611 97.6212 94.2197 97.2092 94.6317C96.7972 95.0437 96.2385 95.2755 95.6558 95.2762Z" fill="#00BFA6"/>
<path d="M104.692 95.2762C104.109 95.2755 103.551 95.0438 103.139 94.6317C102.727 94.2197 102.495 93.6611 102.494 93.0784V86.4849C102.494 85.902 102.726 85.343 103.138 84.9308C103.55 84.5187 104.109 84.2871 104.692 84.2871C105.275 84.2871 105.834 84.5187 106.246 84.9308C106.658 85.343 106.89 85.902 106.89 86.4849V93.0784C106.889 93.6611 106.657 94.2197 106.245 94.6317C105.833 95.0437 105.275 95.2755 104.692 95.2762Z" fill="#00BFA6"/>
<path d="M110.552 95.2762C109.97 95.2755 109.411 95.0438 108.999 94.6317C108.587 94.2197 108.355 93.6611 108.354 93.0784V86.4849C108.354 85.902 108.586 85.343 108.998 84.9308C109.41 84.5187 109.969 84.2871 110.552 84.2871C111.135 84.2871 111.694 84.5187 112.106 84.9308C112.519 85.343 112.75 85.902 112.75 86.4849V93.0784C112.749 93.6611 112.518 94.2197 112.106 94.6317C111.694 95.0437 111.135 95.2755 110.552 95.2762Z" fill="#00BFA6"/>
<path d="M116.414 95.2762C115.831 95.2755 115.272 95.0438 114.86 94.6317C114.448 94.2197 114.216 93.6611 114.216 93.0784V86.4849C114.216 85.902 114.447 85.343 114.86 84.9308C115.272 84.5187 115.831 84.2871 116.414 84.2871C116.997 84.2871 117.556 84.5187 117.968 84.9308C118.38 85.343 118.611 85.902 118.611 86.4849V93.0784C118.611 93.6611 118.379 94.2197 117.967 94.6317C117.555 95.0437 116.996 95.2755 116.414 95.2762Z" fill="#00BFA6"/>
<path d="M57.3207 119.737H25.7112C25.3195 119.737 24.9439 119.581 24.6669 119.304C24.39 119.027 24.2344 118.652 24.2344 118.26C24.2344 117.868 24.39 117.493 24.6669 117.216C24.9439 116.939 25.3195 116.783 25.7112 116.783H57.3207C57.7124 116.783 58.088 116.939 58.365 117.216C58.6419 117.493 58.7975 117.868 58.7975 118.26C58.7975 118.652 58.6419 119.027 58.365 119.304C58.088 119.581 57.7124 119.737 57.3207 119.737Z" fill="#E6E6E6"/>
<path d="M47.1867 113.387H35.8459C35.4543 113.387 35.0786 113.232 34.8017 112.955C34.5247 112.678 34.3691 112.302 34.3691 111.91C34.3691 111.519 34.5247 111.143 34.8017 110.866C35.0786 110.589 35.4543 110.434 35.8459 110.434H47.1867C47.5784 110.434 47.954 110.589 48.231 110.866C48.5079 111.143 48.6635 111.519 48.6635 111.91C48.6635 112.302 48.5079 112.678 48.231 112.955C47.954 113.232 47.5784 113.387 47.1867 113.387Z" fill="#E6E6E6"/>
<path d="M138.147 68.6582H17.7559V69.1466H138.147V68.6582Z" fill="#3F3D56"/>
</g>
<defs>
<clipPath id="clip0_519_417">
<rect width="138.504" height="126.328" fill="white" transform="translate(0.219727 0.992188)"/>
</clipPath>
</defs>
</svg>
