<svg width="188" height="122" viewBox="0 0 188 122" fill="none" xmlns="http://www.w3.org/2000/svg">
<g clip-path="url(#clip0_519_513)">
<path d="M143.99 115.11L153.726 100.632L144.01 116.668L144.031 118.297C143.32 118.302 142.616 118.29 141.919 118.261L142.402 97.3198L142.389 97.1582L142.406 97.127L142.453 95.1482L131.791 79.6686L142.44 93.6671L142.478 94.0854L142.843 78.2634L133.634 62.2147L142.869 75.4839L142.772 42.7048L142.773 42.5957L142.776 42.703L143.387 68.5374L151.78 58.0434L143.415 70.7629L143.598 84.9154L151.321 71.1031L143.626 86.996L143.728 94.8655L154.96 75.6252L143.762 97.6108L143.99 115.11Z" fill="#E6E6E6"/>
<path d="M176.754 115.565L186.49 101.087L176.774 117.123L176.794 118.752C176.083 118.757 175.38 118.745 174.683 118.716L175.166 97.7748L175.152 97.6133L175.17 97.5821L175.216 95.6032L164.555 80.1237L175.204 94.1222L175.242 94.5405L175.606 78.7185L166.397 62.6697L175.633 75.939L175.536 43.1599L175.536 43.0508L175.539 43.1581L176.151 68.9924L184.544 58.4985L176.178 71.218L176.361 85.3704L184.084 71.5582L176.39 87.4511L176.492 95.3205L187.723 76.0803L176.526 98.0658L176.754 115.565Z" fill="#E6E6E6"/>
<path d="M78.262 0.160156H20.0029V78.9626H78.262V0.160156Z" fill="#E6E6E6"/>
<path d="M76.2089 2.9375H22.0557V76.1863H76.2089V2.9375Z" fill="white"/>
<path d="M69.0917 15.7852H29.348C29.0261 15.7848 28.7175 15.6566 28.49 15.4288C28.2625 15.201 28.1348 14.8923 28.1348 14.5703C28.1348 14.2484 28.2625 13.9396 28.49 13.7119C28.7175 13.4841 29.0261 13.3559 29.348 13.3555H69.0917C69.2514 13.3553 69.4095 13.3865 69.5571 13.4475C69.7047 13.5084 69.8388 13.5979 69.9518 13.7107C70.0648 13.8236 70.1544 13.9576 70.2156 14.1051C70.2767 14.2526 70.3082 14.4107 70.3082 14.5703C70.3082 14.73 70.2767 14.8881 70.2156 15.0356C70.1544 15.1831 70.0648 15.3171 69.9518 15.43C69.8388 15.5428 69.7047 15.6322 69.5571 15.6932C69.4095 15.7542 69.2514 15.7854 69.0917 15.7852Z" fill="#E6E6E6"/>
<path d="M69.0917 28.2813H29.348C29.0261 28.2809 28.7175 28.1527 28.49 27.9249C28.2625 27.6971 28.1348 27.3884 28.1348 27.0664C28.1348 26.7445 28.2625 26.4357 28.49 26.208C28.7175 25.9802 29.0261 25.852 29.348 25.8516H69.0917C69.2514 25.8514 69.4095 25.8826 69.5571 25.9436C69.7047 26.0045 69.8388 26.094 69.9518 26.2068C70.0648 26.3197 70.1544 26.4536 70.2156 26.6011C70.2767 26.7486 70.3082 26.9068 70.3082 27.0664C70.3082 27.2261 70.2767 27.3842 70.2156 27.5317C70.1544 27.6792 70.0648 27.8132 69.9518 27.926C69.8388 28.0389 69.7047 28.1283 69.5571 28.1893C69.4095 28.2502 69.2514 28.2815 69.0917 28.2813Z" fill="#E6E6E6"/>
<path d="M69.0917 40.7754H29.348C29.0261 40.775 28.7175 40.6468 28.49 40.4191C28.2625 40.1913 28.1348 39.8825 28.1348 39.5606C28.1348 39.2386 28.2625 38.9299 28.49 38.7021C28.7175 38.4743 29.0261 38.3461 29.348 38.3457H69.0917C69.2514 38.3455 69.4095 38.3768 69.5571 38.4377C69.7047 38.4987 69.8388 38.5881 69.9518 38.701C70.0648 38.8138 70.1544 38.9478 70.2156 39.0953C70.2767 39.2428 70.3082 39.4009 70.3082 39.5606C70.3082 39.7202 70.2767 39.8784 70.2156 40.0259C70.1544 40.1734 70.0648 40.3074 69.9518 40.4202C69.8388 40.533 69.7047 40.6225 69.5571 40.6834C69.4095 40.7444 69.2514 40.7757 69.0917 40.7754Z" fill="#E6E6E6"/>
<path d="M69.0917 53.2715H29.348C29.0261 53.2711 28.7175 53.1429 28.49 52.9151C28.2625 52.6874 28.1348 52.3786 28.1348 52.0567C28.1348 51.7347 28.2625 51.426 28.49 51.1982C28.7175 50.9704 29.0261 50.8422 29.348 50.8418H69.0917C69.2514 50.8416 69.4095 50.8729 69.5571 50.9338C69.7047 50.9948 69.8388 51.0842 69.9518 51.1971C70.0648 51.3099 70.1544 51.4439 70.2156 51.5914C70.2767 51.7389 70.3082 51.897 70.3082 52.0567C70.3082 52.2163 70.2767 52.3744 70.2156 52.5219C70.1544 52.6694 70.0648 52.8034 69.9518 52.9163C69.8388 53.0291 69.7047 53.1186 69.5571 53.1795C69.4095 53.2405 69.2514 53.2718 69.0917 53.2715Z" fill="#E6E6E6"/>
<path d="M69.0917 65.7676H29.348C29.0261 65.7672 28.7175 65.639 28.49 65.4112C28.2625 65.1835 28.1348 64.8747 28.1348 64.5528C28.1348 64.2308 28.2625 63.9221 28.49 63.6943C28.7175 63.4665 29.0261 63.3383 29.348 63.3379H69.0917C69.2514 63.3377 69.4095 63.369 69.5571 63.4299C69.7047 63.4909 69.8388 63.5803 69.9518 63.6932C70.0648 63.806 70.1544 63.94 70.2156 64.0875C70.2767 64.235 70.3082 64.3931 70.3082 64.5528C70.3082 64.7124 70.2767 64.8705 70.2156 65.018C70.1544 65.1655 70.0648 65.2995 69.9518 65.4124C69.8388 65.5252 69.7047 65.6146 69.5571 65.6756C69.4095 65.7366 69.2514 65.7678 69.0917 65.7676Z" fill="#E6E6E6"/>
<path d="M62.1496 15.7852H29.1745C29.0148 15.7854 28.8567 15.7542 28.7091 15.6932C28.5615 15.6322 28.4274 15.5428 28.3144 15.43C28.2014 15.3171 28.1118 15.1831 28.0506 15.0356C27.9895 14.8881 27.958 14.73 27.958 14.5703C27.958 14.4107 27.9895 14.2526 28.0506 14.1051C28.1118 13.9576 28.2014 13.8236 28.3144 13.7107C28.4274 13.5979 28.5615 13.5084 28.7091 13.4475C28.8567 13.3865 29.0148 13.3553 29.1745 13.3555H62.1496C62.4715 13.3559 62.7801 13.4841 63.0076 13.7119C63.2351 13.9396 63.3628 14.2484 63.3628 14.5703C63.3628 14.8923 63.2351 15.201 63.0076 15.4288C62.7801 15.6566 62.4715 15.7848 62.1496 15.7852Z" fill="#00BFA6"/>
<path d="M51.9093 28.2813H29.1739C28.8517 28.2813 28.5426 28.1533 28.3148 27.9255C28.087 27.6976 27.959 27.3886 27.959 27.0664C27.959 26.7442 28.087 26.4352 28.3148 26.2074C28.5426 25.9796 28.8517 25.8516 29.1739 25.8516H51.9093C52.069 25.8514 52.2271 25.8826 52.3747 25.9436C52.5223 26.0045 52.6564 26.094 52.7694 26.2068C52.8824 26.3197 52.972 26.4536 53.0331 26.6011C53.0943 26.7486 53.1258 26.9068 53.1258 27.0664C53.1258 27.2261 53.0943 27.3842 53.0331 27.5317C52.972 27.6792 52.8824 27.8132 52.7694 27.926C52.6564 28.0389 52.5223 28.1283 52.3747 28.1893C52.2271 28.2502 52.069 28.2815 51.9093 28.2813Z" fill="#00BFA6"/>
<path d="M39.4141 40.7754H29.1745C29.0148 40.7757 28.8567 40.7444 28.7091 40.6834C28.5615 40.6225 28.4274 40.533 28.3144 40.4202C28.2014 40.3074 28.1118 40.1734 28.0506 40.0259C27.9895 39.8784 27.958 39.7202 27.958 39.5606C27.958 39.4009 27.9895 39.2428 28.0506 39.0953C28.1118 38.9478 28.2014 38.8138 28.3144 38.701C28.4274 38.5881 28.5615 38.4987 28.7091 38.4377C28.8567 38.3768 29.0148 38.3455 29.1745 38.3457H39.4141C39.736 38.3461 40.0446 38.4743 40.2721 38.7021C40.4996 38.9299 40.6274 39.2386 40.6274 39.5606C40.6274 39.8825 40.4996 40.1913 40.2721 40.4191C40.0446 40.6468 39.736 40.775 39.4141 40.7754Z" fill="#00BFA6"/>
<path d="M65.2729 53.2715H29.1739C28.8517 53.2715 28.5426 53.1435 28.3148 52.9157C28.087 52.6879 27.959 52.3789 27.959 52.0567C27.959 51.7345 28.087 51.4255 28.3148 51.1976C28.5426 50.9698 28.8517 50.8418 29.1739 50.8418H65.2729C65.5951 50.8418 65.9041 50.9698 66.132 51.1976C66.3598 51.4255 66.4878 51.7345 66.4878 52.0567C66.4878 52.3789 66.3598 52.6879 66.132 52.9157C65.9041 53.1435 65.5951 53.2715 65.2729 53.2715Z" fill="#00BFA6"/>
<path d="M57.2901 65.7676H29.1745C29.0148 65.7678 28.8567 65.7366 28.7091 65.6756C28.5615 65.6146 28.4274 65.5252 28.3144 65.4124C28.2014 65.2995 28.1118 65.1655 28.0506 65.018C27.9895 64.8705 27.958 64.7124 27.958 64.5528C27.958 64.3931 27.9895 64.235 28.0506 64.0875C28.1118 63.94 28.2014 63.806 28.3144 63.6932C28.4274 63.5803 28.5615 63.4909 28.7091 63.4299C28.8567 63.369 29.0148 63.3377 29.1745 63.3379H57.2901C57.4497 63.3377 57.6079 63.369 57.7555 63.4299C57.903 63.4909 58.0372 63.5803 58.1501 63.6932C58.2631 63.806 58.3528 63.94 58.4139 64.0875C58.4751 64.235 58.5065 64.3931 58.5065 64.5528C58.5065 64.7124 58.4751 64.8705 58.4139 65.018C58.3528 65.1655 58.2631 65.2995 58.1501 65.4124C58.0372 65.5252 57.903 65.6146 57.7555 65.6756C57.6079 65.7366 57.4497 65.7678 57.2901 65.7676Z" fill="#00BFA6"/>
<path d="M186.812 118.297H0.723633V118.716H186.812V118.297Z" fill="#3F3D56"/>
<path d="M106.758 56.9313C106.758 56.9313 105.441 47.272 103.245 49.9064C101.05 52.5408 103.245 56.4923 103.245 56.4923L105.001 58.6876L106.758 57.3704V56.9313Z" fill="#9F616A"/>
<path d="M112.027 60.0055C112.027 60.0055 107.636 55.1759 106.758 56.054C105.88 56.9321 103.246 57.3712 103.685 59.1274C104.124 60.8836 113.344 66.5914 113.344 66.5914L112.027 60.0055Z" fill="#00BFA6"/>
<path opacity="0.1" d="M112.027 60.0055C112.027 60.0055 107.636 55.1759 106.758 56.054C105.88 56.9321 103.246 57.3712 103.685 59.1274C104.124 60.8836 113.344 66.5914 113.344 66.5914L112.027 60.0055Z" fill="black"/>
<path d="M137.053 59.5664V63.0789C137.053 63.0789 137.492 70.982 134.857 70.5429C132.223 70.1038 133.54 63.518 133.54 63.518L133.979 59.5664L137.053 59.5664Z" fill="#9F616A"/>
<path d="M135.736 85.0312C135.736 85.0312 139.687 91.1781 141.004 91.6171C142.322 92.0562 149.347 96.0077 150.225 99.9593L156.371 107.862L153.298 111.814C153.298 111.814 139.248 96.8859 135.297 95.5687C131.345 94.2515 127.394 87.6656 127.394 87.6656L135.736 85.0312Z" fill="#9F616A"/>
<path d="M104.562 74.9336C104.562 74.9336 96.2204 76.2508 97.5375 81.5195C98.8547 86.7882 111.587 97.7647 111.587 97.7647L112.027 100.399L116.856 101.277L119.051 99.0819L118.612 97.7647C118.612 97.7647 113.344 92.935 112.905 91.1788C112.466 89.4226 107.636 82.3976 105.441 81.9586L108.514 80.2023L104.562 74.9336Z" fill="#9F616A"/>
<path d="M155.055 107.862C155.055 107.862 153.299 105.227 155.933 105.667C158.568 106.106 160.324 106.545 160.324 108.301C160.324 110.057 158.128 122.351 155.494 121.473C152.86 120.595 155.055 116.643 155.055 116.643C155.055 116.643 153.738 113.131 152.86 112.692C151.982 112.252 151.982 110.057 152.86 110.057C153.738 110.057 155.494 108.74 155.055 107.862Z" fill="#2F2E41"/>
<path d="M117.735 98.2022C117.735 98.2022 117.735 96.007 119.491 98.2022C121.247 100.398 122.125 102.154 120.369 103.471C118.613 104.788 112.466 107.862 112.466 107.862C112.466 107.862 105.88 109.179 106.758 106.105C106.758 106.105 111.149 103.91 111.149 102.154C111.149 100.398 111.149 97.3241 112.466 98.2022C113.783 99.0804 117.735 99.5194 117.735 98.2022Z" fill="#2F2E41"/>
<path d="M126.077 65.2734C126.077 65.2734 132.224 66.1516 131.785 74.9328C131.785 74.9328 139.688 82.8358 137.492 85.4702C135.297 88.1045 130.467 92.9342 128.711 91.617C126.955 90.2998 121.686 80.2015 121.686 80.2015C121.686 80.2015 109.393 84.5921 107.197 82.3968C105.002 80.2015 102.807 74.9328 102.807 74.9328L113.783 69.225L126.077 65.2734Z" fill="#2F2E41"/>
<path d="M108.953 40.2464C111.863 40.2464 114.222 37.8875 114.222 34.9777C114.222 32.0679 111.863 29.709 108.953 29.709C106.043 29.709 103.685 32.0679 103.685 34.9777C103.685 37.8875 106.043 40.2464 108.953 40.2464Z" fill="#9F616A"/>
<path d="M112.905 35.418C112.905 35.418 115.979 40.2476 116.857 40.6867C117.735 41.1257 110.71 45.5163 110.71 45.5163C110.71 45.5163 110.71 39.8086 108.515 38.4914L112.905 35.418Z" fill="#9F616A"/>
<path d="M113.344 40.2479C113.344 40.2479 120.369 38.0526 121.686 41.5651C123.004 45.0775 126.077 51.6634 125.638 56.054C125.199 60.4446 124.321 59.5665 125.638 60.8837C126.955 62.2009 127.833 61.3227 127.394 63.079C126.955 64.8352 126.516 64.8352 126.955 65.7133C127.394 66.5914 121.686 69.6649 116.857 70.1039L112.027 70.543C112.027 70.543 112.027 62.6399 111.149 60.8837C110.271 59.1274 108.515 55.615 108.515 54.2978V50.8126C108.515 48.493 109.12 46.2135 110.271 44.1994C110.271 44.1994 112.905 40.2479 113.344 40.2479Z" fill="#00BFA6"/>
<path d="M118.613 42.0039C118.613 42.0039 134.858 43.3211 136.614 47.7117C138.37 52.1023 139.248 60.8835 137.492 60.8835C135.736 60.8835 133.541 61.7616 133.102 60.8835C132.662 60.0053 130.906 51.2241 130.467 51.2241C130.028 51.2241 116.856 49.907 116.856 49.907C116.856 49.907 111.149 42.882 118.613 42.0039Z" fill="#00BFA6"/>
<path d="M108.742 33.6725C108.742 33.6725 107.343 31.2428 105.596 33.3532C103.848 35.4637 101.005 31.5853 101.441 30.7578C101.878 29.9302 103.419 30.795 106.061 29.9315C108.702 29.0681 113.79 27.309 114.642 33.0471C115.494 38.7852 113.465 38.1836 113.465 38.1836C113.465 38.1836 112.535 33.0991 111.694 34.5596L110.853 36.0201L110.124 36.1996L108.742 33.6725Z" fill="#2F2E41"/>
</g>
<defs>
<clipPath id="clip0_519_513">
<rect width="187" height="121.358" fill="white" transform="translate(0.723633 0.160156)"/>
</clipPath>
</defs>
</svg>
