<svg width="153" height="110" viewBox="0 0 153 110" fill="none" xmlns="http://www.w3.org/2000/svg">
<g clip-path="url(#clip0_519_444)">
<path d="M139.469 98.4643C140.807 100.829 139.672 108.817 139.672 108.817C139.672 108.817 132.243 105.672 130.905 103.308C130.264 102.173 130.1 100.829 130.449 99.5727C130.798 98.3164 131.632 97.2501 132.767 96.6082C133.902 95.9662 135.246 95.8012 136.502 96.1492C137.759 96.4972 138.826 97.3299 139.469 98.4643V98.4643Z" fill="#F1F1F1"/>
<path d="M139.78 108.808L139.622 108.841C138.101 101.618 132.793 96.7207 132.739 96.6721L132.848 96.5527C132.902 96.6017 138.248 101.533 139.78 108.808Z" fill="white"/>
<path d="M151.626 101.157C149.81 104.45 139.574 108.912 139.574 108.912C139.574 108.912 137.887 97.8741 139.701 94.5816C140.573 93.0003 142.037 91.8301 143.772 91.3285C145.507 90.8269 147.37 91.0349 148.951 91.9069C150.532 92.7788 151.703 94.2432 152.204 95.9779C152.706 97.7126 152.498 99.5755 151.626 101.157Z" fill="#F1F1F1"/>
<path d="M139.665 109.031L139.511 108.87C146.918 101.835 148.835 92.0241 148.854 91.9258L149.073 91.967C149.055 92.066 147.125 101.946 139.665 109.031Z" fill="white"/>
<path d="M36.0365 76.2183C34.865 76.2144 33.6987 76.0635 32.5648 75.7692L32.3414 75.7074L32.134 75.6035C24.6389 71.8456 18.3157 66.8819 13.3399 60.8503C9.22107 55.828 6.00982 50.1258 3.85058 44.0001C1.26847 36.666 0.0262143 28.9274 0.183131 21.1536C0.186297 20.9904 0.188977 20.8644 0.188977 20.7776C0.188977 16.9988 2.28654 13.6831 5.53276 12.3305C8.01725 11.2953 30.5753 2.02977 32.2052 1.36032C35.2746 -0.177696 38.5493 1.10602 39.0733 1.3305C40.2487 1.81108 61.1022 10.3404 65.6086 12.4863C70.253 14.6978 71.4921 18.6709 71.4921 20.6698C71.4921 29.7194 69.9248 38.177 66.8337 45.8076C64.3374 51.9841 60.7992 57.6862 56.3734 62.6654C47.8344 72.2749 39.2931 75.6814 39.2107 75.7115C38.1899 76.0627 37.1159 76.2342 36.0365 76.2183ZM34.0279 71.2428C34.7684 71.4088 36.4732 71.6579 37.5845 71.2525C38.9961 70.7377 46.145 67.0305 52.8255 59.5127C62.0556 49.1256 66.7389 36.0682 66.7458 20.7031C66.7293 20.3919 66.5082 18.1716 63.568 16.7716C59.149 14.6673 37.4735 5.80423 37.2551 5.7149L37.1952 5.68951C36.741 5.49916 35.2953 5.09822 34.2988 5.62041L34.0993 5.71343C33.8577 5.81266 9.91212 15.6476 7.35831 16.7117C5.57184 17.4561 4.93533 19.3001 4.93533 20.7776C4.93533 20.8856 4.93253 21.0427 4.92859 21.2457C4.72448 31.759 7.15734 57.6292 34.0279 71.2428Z" fill="#3F3D56"/>
<path d="M33.1976 3.51761C33.1976 3.51761 9.03437 13.4418 6.44545 14.5205C3.85652 15.5992 2.56207 18.1882 2.56207 20.7771C2.56207 23.366 0.62038 57.1479 33.1976 73.4814C33.1976 73.4814 36.1543 74.2995 38.3975 73.4814C40.6408 72.6633 69.1189 58.8558 69.1189 20.6692C69.1189 20.6692 69.1189 16.7858 64.5883 14.6284C60.0577 12.471 38.1529 3.51761 38.1529 3.51761C38.1529 3.51761 35.4629 2.33102 33.1976 3.51761Z" fill="#00BFA6"/>
<path opacity="0.1" d="M35.7867 11.2852V64.2272C35.7867 64.2272 11.4077 52.4921 11.6235 21.6408L35.7867 11.2852Z" fill="black"/>
<path d="M36.1048 49.3344L28.3389 39.3491L32.8551 35.8366L36.5323 40.5644L48.9543 27.4512L53.1083 31.3869L36.1048 49.3344Z" fill="white"/>
<path d="M152.538 109.386H81.5759C81.5265 109.386 81.4791 109.367 81.4442 109.332C81.4093 109.297 81.3896 109.249 81.3896 109.2C81.3896 109.151 81.4093 109.103 81.4442 109.068C81.4791 109.033 81.5265 109.014 81.5759 109.014H152.538C152.587 109.014 152.634 109.033 152.669 109.068C152.704 109.103 152.724 109.151 152.724 109.2C152.724 109.249 152.704 109.297 152.669 109.332C152.634 109.367 152.587 109.386 152.538 109.386Z" fill="#CACACA"/>
<path d="M102.088 106.45L104.969 106.45L106.339 95.3398L102.088 95.34L102.088 106.45Z" fill="#FFB8B8"/>
<path d="M101.354 105.51L107.026 105.51H107.027C107.985 105.51 108.905 105.891 109.583 106.569C110.261 107.247 110.642 108.166 110.642 109.125V109.242L101.354 109.243L101.354 105.51Z" fill="#2F2E41"/>
<path d="M111.774 106.45L114.654 106.45L116.025 95.3398L111.773 95.34L111.774 106.45Z" fill="#FFB8B8"/>
<path d="M111.039 105.51L116.712 105.51H116.712C117.671 105.51 118.59 105.891 119.268 106.569C119.946 107.247 120.327 108.166 120.327 109.125V109.242L111.039 109.243L111.039 105.51Z" fill="#2F2E41"/>
<path d="M106.616 67.4336L107.307 102.682L101.718 102.335L97.84 79.884L96.6152 64.5762L106.616 67.4336Z" fill="#2F2E41"/>
<path d="M116.209 61.5147L116.992 103.24L110.474 103.054L109.065 78.251L106.616 69.2705L96.6152 64.5762L98.248 53.3506L112.943 53.1465L116.209 61.5147Z" fill="#2F2E41"/>
<path d="M104.97 24.1633C107.731 24.1633 109.969 21.9254 109.969 19.1647C109.969 16.404 107.731 14.166 104.97 14.166C102.21 14.166 99.9717 16.404 99.9717 19.1647C99.9717 21.9254 102.21 24.1633 104.97 24.1633Z" fill="#FFB8B8"/>
<path d="M109.116 26.2695L109.882 27.4295L111.923 33.1443L110.29 55.3913L100.697 55.5956L99.4727 30.0827L102.038 26.8762L109.116 26.2695Z" fill="#CCCCCC"/>
<path d="M95.5947 30.6943L93.9619 30.4902C93.9619 30.4902 93.5537 30.6943 93.3496 32.123C93.1455 33.5518 90.6963 46.2061 90.6963 46.2061L93.9619 61.7178L97.6358 56.8194L95.3907 48.2471L97.6358 39.6748L95.5947 30.6943Z" fill="#2F2E41"/>
<path d="M116.413 30.4902H117.638L120.699 47.0223L117.842 59.8807L114.984 55.1864L115.801 50.0839L115.393 45.5937L113.964 42.9402L116.413 30.4902Z" fill="#2F2E41"/>
<path d="M107.924 19.1649L107.015 18.9377C107.015 18.9377 106.333 15.0751 104.743 15.5295C103.152 15.9839 99.0625 16.4383 99.0625 14.6206C99.0625 12.8029 102.925 11.2125 105.197 11.4397C107.469 11.6669 110.371 12.4207 111.105 15.7567C112.281 21.1045 108.679 22.4553 108.679 22.4553L108.738 22.2606C108.905 21.72 108.917 21.1436 108.773 20.5965C108.629 20.0494 108.335 19.5536 107.924 19.1649Z" fill="#2F2E41"/>
<path d="M94.166 30.4898L100.697 27.8364L102.228 26.7139L106.82 47.022L108.963 26.1016L117.434 30.4898L114.576 44.3687L114.168 49.6753L115.393 53.9615C115.393 53.9615 119.679 57.023 118.25 60.2886C116.821 63.5542 115.188 63.7584 115.188 63.7584C115.188 63.7584 108.249 57.2271 107.841 55.5943C107.433 53.9615 106.82 51.104 106.82 51.104C106.82 51.104 103.351 64.1666 99.2686 63.9625C95.1866 63.7583 95.1865 59.4722 95.1865 59.4722L96.2071 54.982L97.8399 50.2876L97.0235 42.5318L94.166 30.4898Z" fill="#2F2E41"/>
</g>
<defs>
<clipPath id="clip0_519_444">
<rect width="152.553" height="108.771" fill="white" transform="translate(0.170898 0.615234)"/>
</clipPath>
</defs>
</svg>
