<svg width="9" height="8" viewBox="0 0 9 8" fill="none" xmlns="http://www.w3.org/2000/svg">
<path d="M2.00392 4.375H6.34852C6.55562 4.375 6.72352 4.2071 6.72352 4C6.72352 3.7929 6.55562 3.62501 6.34852 3.62501H2.00392L2.48877 3.14016C2.63522 2.99371 2.63522 2.75629 2.48877 2.60984C2.34235 2.46339 2.1049 2.46339 1.95845 2.60984L0.833507 3.7348C0.824732 3.74358 0.816432 3.75278 0.808582 3.76238C0.805157 3.76655 0.802182 3.77098 0.798957 3.77525C0.794832 3.78075 0.790582 3.78613 0.786757 3.79185C0.783257 3.79708 0.780232 3.8025 0.777032 3.80785C0.773958 3.813 0.770733 3.81803 0.767908 3.82333C0.764958 3.82883 0.762483 3.83448 0.759833 3.84008C0.757233 3.84555 0.754508 3.85095 0.752183 3.85655C0.749933 3.86203 0.748083 3.8676 0.746108 3.87315C0.743933 3.87915 0.741633 3.88508 0.739783 3.8912C0.738108 3.89675 0.736883 3.90238 0.735483 3.908C0.733908 3.91423 0.732158 3.92043 0.730908 3.92678C0.729633 3.93325 0.728858 3.9398 0.727933 3.94633C0.727133 3.9519 0.726058 3.9574 0.725508 3.96305C0.724308 3.97515 0.723683 3.98733 0.723658 3.99948C0.723658 3.99965 0.723633 3.99985 0.723633 4.00003C0.723633 4.0002 0.723658 4.0004 0.723658 4.00058C0.723683 4.01275 0.724308 4.0249 0.725508 4.03703C0.726058 4.0426 0.727108 4.04803 0.727883 4.05355C0.728833 4.06015 0.729608 4.06675 0.730908 4.0733C0.732158 4.0796 0.733883 4.0857 0.735458 4.09188C0.736883 4.09755 0.738133 4.10328 0.739833 4.1089C0.741658 4.11493 0.743933 4.12075 0.746033 4.12665C0.748058 4.1323 0.749908 4.13798 0.752208 4.14353C0.754483 4.14903 0.757158 4.1543 0.759708 4.15968C0.762408 4.1654 0.764958 4.17118 0.767958 4.1768C0.770708 4.18193 0.773832 4.1868 0.776807 4.19178C0.780082 4.1973 0.783207 4.20288 0.786807 4.20825C0.790457 4.21373 0.794532 4.21885 0.798457 4.22413C0.801857 4.22865 0.805007 4.23333 0.808632 4.23773C0.816107 4.24683 0.824032 4.25555 0.832307 4.26393C0.832707 4.26433 0.833032 4.26478 0.833432 4.26518L1.95843 5.39019C2.03167 5.46342 2.12762 5.50004 2.2236 5.50004C2.31955 5.50002 2.41555 5.46342 2.48875 5.39022C2.6352 5.24377 2.6352 5.00635 2.48877 4.8599L2.00392 4.375Z" fill="black"/>
<path d="M8.3486 0.625H3.59863C3.39153 0.625 3.22363 0.792899 3.22363 0.999998V2.49999C3.22363 2.70709 3.39153 2.87499 3.59863 2.87499C3.80573 2.87499 3.97363 2.70709 3.97363 2.49999V1.375H7.97361V6.62499H3.97363V5.49997C3.97363 5.29287 3.80573 5.12497 3.59863 5.12497C3.39153 5.12497 3.22363 5.29287 3.22363 5.49997V6.99999C3.22363 7.20708 3.39153 7.37498 3.59863 7.37498H8.3486C8.5557 7.37498 8.7236 7.20708 8.7236 6.99999V0.999998C8.7236 0.792899 8.5557 0.625 8.3486 0.625Z" fill="black"/>
</svg>
