<svg width="351" height="173" viewBox="0 0 351 173" fill="none" xmlns="http://www.w3.org/2000/svg">
<path d="M141.249 130.981C139.438 139.868 134.618 147.765 129.539 155.339C129.37 155.597 129.198 155.851 129.021 156.109L82.3306 152.643C81.4045 152.328 80.4923 151.989 79.5856 151.631C74.4312 149.634 69.6344 146.815 65.3815 143.284C49.1227 129.634 44.2486 105.758 48.7894 85.0249C51.6121 72.144 58.3123 59.2762 69.9588 53.0905C76.1086 49.8178 83.7439 49.1724 90.4041 51.0526C90.5787 51.0979 90.7525 51.1512 90.9305 51.2007C96.6515 52.9425 101.593 56.5819 104.153 62.0444C108.758 71.8605 104.733 83.2987 101.347 93.5924C97.9691 103.887 95.627 116.335 102.599 124.629C100.652 117.111 103.76 108.547 110.079 104.03C114.853 100.623 121.217 99.6852 126.841 101.27C127.379 101.427 127.907 101.6 128.426 101.8C129.68 102.27 130.877 102.88 131.996 103.616C140.527 109.247 143.282 120.962 141.249 130.981Z" fill="#F2F2F2"/>
<path d="M111.703 154.015C112.975 154.412 114.253 154.774 115.541 155.108L108.481 154.584C107.576 154.266 106.675 153.933 105.785 153.576C103.826 152.8 101.905 151.934 100.022 150.978C92.4697 147.129 85.6537 141.686 80.7062 134.749C78.2843 131.387 76.3778 127.682 75.0497 123.756C73.6225 119.325 72.849 114.709 72.7537 110.055C72.473 100.499 74.2008 90.8299 76.7685 81.6552C79.4215 72.1455 83.2432 63.0015 88.1463 54.4322C88.7357 53.4053 89.3419 52.3864 89.965 51.3754C90.009 51.2916 90.0714 51.219 90.1477 51.163C90.224 51.1071 90.312 51.0693 90.4051 51.0525C90.5932 51.0303 90.7825 51.0836 90.9315 51.2007C91.1116 51.3226 91.2381 51.5091 91.2847 51.7215C91.3314 51.934 91.2946 52.1563 91.1821 52.3425C86.1733 60.5505 82.1859 69.3396 79.3086 78.5146C76.4949 87.465 74.574 96.9059 74.2926 106.303C74.0369 115.083 75.6845 123.86 80.3406 131.401C84.593 138.286 90.752 143.923 97.7284 147.968C102.146 150.499 106.834 152.528 111.703 154.015V154.015Z" fill="#00BFA6"/>
<path d="M127.137 155.969L125.056 155.814C124.842 155.532 124.637 155.246 124.436 154.96C120.123 148.848 117.421 141.747 116.579 134.313C115.576 125.04 117.586 115.69 122.312 107.649C123.631 105.393 125.147 103.259 126.841 101.27C127.379 101.427 127.908 101.6 128.426 101.8C123.982 106.861 120.796 112.902 119.13 119.428C117.622 125.548 117.499 131.927 118.77 138.101C120.041 144.274 122.674 150.085 126.478 155.112C126.69 155.398 126.912 155.685 127.137 155.969Z" fill="#00BFA6"/>
<path d="M315.145 163.051C315.271 165.442 316.222 167.691 317.253 169.866C317.287 169.94 317.322 170.013 317.358 170.087L329.68 171.002C329.934 170.955 330.186 170.903 330.436 170.844C331.859 170.524 333.221 169.975 334.469 169.219C339.245 166.289 341.447 160.247 341.07 154.658C340.835 151.186 339.588 147.566 336.788 145.498C335.266 144.408 333.388 143.934 331.531 144.169C331.484 144.174 331.436 144.181 331.388 144.187C330.615 144.278 329.871 144.531 329.203 144.93C328.535 145.329 327.96 145.865 327.514 146.503C325.93 148.885 326.534 152.028 327.017 154.847C327.498 157.665 327.624 161.006 325.481 162.9C325.836 162.067 325.964 161.156 325.85 160.258C325.736 159.361 325.385 158.51 324.834 157.793C324.282 157.076 323.549 156.518 322.711 156.178C321.873 155.838 320.959 155.728 320.064 155.858C319.917 155.878 319.772 155.902 319.629 155.934C319.284 156.008 318.947 156.12 318.627 156.269C316.18 157.407 315.005 160.357 315.145 163.051Z" fill="#F2F2F2"/>
<path d="M27.7077 95.7299C28.2324 98.0655 20.938 83.6478 20.534 86.0205C11.4206 90.7924 11.4206 90.7924 20.4925 86.2617L24.6209 87.7371L31.63 95.4941L27.7077 95.7299L25.1638 95.4124C24.9068 95.4367 24.6506 95.4538 24.3936 95.4656C22.9367 95.542 21.4771 95.3819 20.0714 94.9915C14.6812 93.4626 10.9266 88.2411 9.77851 82.7586C9.0656 79.3522 9.28764 75.5298 11.423 72.7815C12.594 71.3208 14.2734 70.3562 16.1251 70.0806C16.1721 70.0726 16.2196 70.0666 16.2678 70.0593C17.0361 69.9377 17.8215 69.9801 18.5722 70.1837C19.323 70.3873 20.0221 70.7475 20.6237 71.2406C22.7934 73.1062 23.061 76.2951 23.3586 79.1395C23.6581 81.9832 25.1324 94.4865 27.7077 95.7299C27.8409 96.6248 27.1407 95.025 27.7077 95.7299C27.5745 94.8351 9.63313 77.2871 9.97031 76.4476C10.3075 75.608 10.8621 74.8734 11.5773 74.3193C12.2924 73.7651 13.1422 73.4114 14.0393 73.2945C14.1858 73.2742 14.3317 73.2586 14.4782 73.2507C14.831 73.2284 11.4206 90.7924 15.5341 73.3021C18.1968 73.7355 27.114 93.0982 27.7077 95.7299Z" fill="#F2F2F2"/>
<path d="M48.7246 131.55C48.9961 133.928 48.4315 136.304 47.7755 138.619C47.7543 138.698 47.7318 138.776 47.7085 138.855L47.1649 141.714L45.6788 145.058L42.9429 145.466L40.8645 145.438L38.9879 144.629L37.4095 143.397L35.7081 141.799C35.4499 141.796 35.1934 141.785 34.9366 141.769C33.4799 141.689 32.0459 141.374 30.6901 140.835C25.4947 138.738 22.3211 133.144 21.767 127.57C21.4231 124.107 22.0534 120.33 24.4708 117.826C25.7916 116.5 27.5647 115.72 29.4353 115.645C29.4828 115.642 29.5308 115.641 29.5795 115.639C30.3564 115.6 31.1327 115.727 31.8573 116.009C32.5819 116.292 33.2384 116.725 33.7837 117.28C35.7411 119.367 35.6655 122.567 35.6566 125.426C35.6498 128.286 36.0789 131.601 38.5062 133.113C37.6377 132.417 36.7718 131.731 36.7352 130.827C35.8862 128.556 35.2315 126.225 35.6566 125.426C36.0818 124.628 39.3536 126.5 40.124 126.026C40.8944 125.551 41.7771 125.291 42.6816 125.271C42.8294 125.266 42.9762 125.266 43.1227 125.274C43.4758 125.29 43.8261 125.345 44.167 125.438C46.7679 126.155 48.4162 128.87 48.7246 131.55Z" fill="#F2F2F2"/>
<path d="M321.961 170.217C321.613 170.271 321.265 170.316 320.916 170.353L322.779 170.491C323.028 170.443 323.276 170.391 323.523 170.333C324.064 170.207 324.599 170.056 325.128 169.88C327.271 169.189 329.217 167.995 330.802 166.396C331.565 165.613 332.207 164.72 332.707 163.747C333.252 162.646 333.634 161.471 333.84 160.26C334.239 157.754 334.259 155.202 333.899 152.69C333.577 150.105 332.935 147.569 331.99 145.141C331.876 144.85 331.757 144.561 331.634 144.272C331.626 144.249 331.612 144.227 331.594 144.21C331.577 144.192 331.555 144.179 331.532 144.171C331.483 144.158 331.432 144.164 331.388 144.189C331.337 144.214 331.296 144.258 331.276 144.311C331.255 144.365 331.256 144.424 331.279 144.477C332.266 146.815 332.965 149.265 333.358 151.772C333.772 154.233 333.849 156.739 333.585 159.221C333.371 161.531 332.481 163.727 331.028 165.536C329.625 167.158 327.845 168.411 325.844 169.183C324.592 169.672 323.29 170.019 321.961 170.217Z" fill="white"/>
<path d="M317.855 170.125L318.404 170.165C318.471 170.1 318.535 170.033 318.599 169.966C319.963 168.539 320.945 166.791 321.454 164.883C322.078 162.502 321.917 159.983 320.997 157.7C320.74 157.06 320.428 156.443 320.063 155.858C319.917 155.878 319.772 155.903 319.629 155.935C320.592 157.429 321.188 159.13 321.368 160.898C321.524 162.555 321.307 164.225 320.735 165.786C320.163 167.348 319.249 168.763 318.06 169.927C317.994 169.993 317.925 170.059 317.855 170.125Z" fill="white"/>
<path d="M208.112 100.439L169.546 97.5764L170.017 85.6883C170.037 85.173 170.169 84.6682 170.403 84.2087C170.638 83.7492 170.969 83.346 171.374 83.0267C171.779 82.7074 172.248 82.4796 172.75 82.3591C173.251 82.2386 173.773 82.2282 174.279 82.3286L196.517 86.7425L196.52 86.7427C199.847 86.9986 202.936 88.5627 205.112 91.0922C207.287 93.6218 208.371 96.9105 208.127 100.238L208.112 100.439Z" fill="#00BFA6"/>
<path d="M194.045 57.101L167.147 55.1045C166.789 55.0779 166.43 55.122 166.089 55.2343C165.748 55.3466 165.433 55.525 165.161 55.7591C164.89 55.9933 164.667 56.2787 164.505 56.5991C164.344 56.9194 164.247 57.2685 164.221 57.6262L162.224 84.5242C162.198 84.8819 162.242 85.2414 162.354 85.5821C162.466 85.9227 162.645 86.238 162.879 86.5097C163.113 86.7814 163.398 87.0043 163.719 87.1657C164.039 87.3271 164.388 87.4238 164.746 87.4502L191.644 89.4467C192.002 89.4733 192.361 89.4292 192.702 89.3169C193.042 89.2046 193.358 89.0262 193.629 88.7921C193.901 88.5579 194.124 88.2725 194.285 87.9521C194.447 87.6318 194.544 87.2827 194.57 86.925L196.566 60.027C196.593 59.6693 196.549 59.3098 196.437 58.9691C196.324 58.6284 196.146 58.3132 195.912 58.0415C195.678 57.7698 195.392 57.5469 195.072 57.3855C194.751 57.2241 194.402 57.1274 194.045 57.101V57.101Z" fill="#CCCCCC"/>
<path d="M196.566 60.027L196.301 63.602L163.955 61.2013L164.221 57.6262C164.247 57.2685 164.344 56.9194 164.505 56.5991C164.667 56.2787 164.89 55.9933 165.161 55.7591C165.433 55.525 165.748 55.3466 166.089 55.2343C166.43 55.122 166.789 55.0779 167.147 55.1045L194.045 57.101C194.402 57.1274 194.751 57.2241 195.072 57.3855C195.392 57.5469 195.678 57.7698 195.912 58.0415C196.146 58.3132 196.324 58.6285 196.437 58.9691C196.549 59.3098 196.593 59.6693 196.566 60.027Z" fill="#B3B3B3"/>
<path d="M260.808 69.5164C260.666 68.8998 260.39 68.3217 260.001 67.8231C259.611 67.3244 259.117 66.9172 258.553 66.6302C257.989 66.3432 257.369 66.1833 256.737 66.1618C256.104 66.1403 255.475 66.2577 254.893 66.5058L218.873 50.4823L216.557 59.6059L252.692 72.4876C253.173 73.4379 253.987 74.1786 254.978 74.5692C255.969 74.9598 257.069 74.9732 258.07 74.607C259.07 74.2408 259.901 73.5203 260.406 72.582C260.911 71.6438 261.054 70.553 260.808 69.5164V69.5164Z" fill="#FFB8B8"/>
<path opacity="0.2" d="M260.808 69.5164C260.666 68.8998 260.39 68.3217 260.001 67.8231C259.611 67.3244 259.117 66.9172 258.553 66.6302C257.989 66.3432 257.369 66.1833 256.737 66.1618C256.104 66.1403 255.475 66.2577 254.893 66.5058L218.873 50.4823L216.557 59.6059L252.692 72.4876C253.173 73.4379 253.987 74.1786 254.978 74.5692C255.969 74.9598 257.069 74.9732 258.07 74.607C259.07 74.2408 259.901 73.5203 260.406 72.582C260.911 71.6438 261.054 70.553 260.808 69.5164V69.5164Z" fill="black"/>
<path d="M225.317 52.6541L221.145 61.524C221.026 61.7764 220.855 62.0002 220.642 62.1802C220.429 62.3602 220.179 62.4922 219.911 62.5672C219.642 62.6422 219.36 62.6584 219.085 62.6148C218.809 62.5711 218.547 62.4686 218.314 62.3142L210.176 56.9038C208.889 56.289 207.897 55.1888 207.42 53.8443C206.942 52.4998 207.017 51.0207 207.628 49.7313C208.239 48.442 209.337 47.4475 210.68 46.966C212.023 46.4845 213.502 46.5552 214.793 47.1626L224.121 49.9698C224.388 50.0503 224.634 50.1874 224.844 50.3717C225.053 50.556 225.22 50.7833 225.334 51.0381C225.447 51.2928 225.504 51.569 225.502 51.8479C225.499 52.1268 225.436 52.4018 225.317 52.6541V52.6541Z" fill="#00BFA6"/>
<path d="M263.095 78.1853L249.388 83.2283L250.642 89.9115C253.064 102.817 252.978 116.068 250.387 128.941V128.941L259.932 131.686L269.489 111.79L268.406 88.2761L263.095 78.1853Z" fill="#00BFA6"/>
<path d="M286.859 110.453C278.147 109.806 270.578 115.613 269.644 123.518L301.957 125.917C302.201 117.96 295.572 111.1 286.859 110.453Z" fill="black"/>
<path d="M279.976 111.316C282.18 75.482 261.546 77.2623 261.546 77.2623C261.546 77.2623 261.101 88.4341 261.258 88.7943C272.426 114.341 248.844 141.569 221.943 134.241C221.436 134.103 220.949 133.965 220.482 133.827C217.077 132.848 214.173 130.609 212.361 127.566C210.548 124.522 209.963 120.902 210.724 117.442C215.015 96.0498 201.614 95.4392 201.614 95.4392L182.059 93.9878L172.582 84.0946C172.248 83.7454 171.833 83.4834 171.374 83.3317C170.915 83.1799 170.425 83.1429 169.949 83.224C169.472 83.305 169.022 83.5016 168.639 83.7966C168.256 84.0916 167.951 84.4759 167.75 84.9161L166.181 88.3651C166.181 88.3651 146.745 88.9426 146.95 107.947L152.913 108.39C152.859 108.925 152.84 109.464 152.858 110.002L197.386 112.943C199.996 113.115 202.142 115.4 201.959 118.009C201.914 118.644 201.742 119.264 201.453 119.831C201.163 120.399 200.762 120.902 200.274 121.31C199.785 121.719 199.219 122.025 198.61 122.21C198.001 122.395 197.36 122.455 196.727 122.387L189.57 121.615C186.63 131.295 191.562 138.328 197.23 142.94C202.57 147.226 209.095 149.772 215.927 150.237L235.417 151.683C260.731 153.562 266.732 132.594 266.732 132.594C280.409 127.953 279.976 111.316 279.976 111.316Z" fill="black"/>
<path d="M281.464 166.817C293.947 167.743 304.817 158.375 305.744 145.893C306.67 133.41 297.302 122.54 284.82 121.613C272.337 120.687 261.467 130.055 260.54 142.537C259.614 155.02 268.982 165.89 281.464 166.817Z" fill="black"/>
<path d="M282.731 149.756C285.79 149.983 288.455 147.687 288.682 144.628C288.909 141.568 286.613 138.904 283.553 138.677C280.494 138.45 277.83 140.746 277.603 143.805C277.375 146.865 279.672 149.529 282.731 149.756Z" fill="white"/>
<path d="M167.35 158.346C181.719 159.413 194.232 148.629 195.299 134.26C196.365 119.891 185.581 107.378 171.213 106.312C156.844 105.245 144.331 116.029 143.264 130.398C142.198 144.767 152.981 157.28 167.35 158.346Z" fill="black"/>
<path d="M168.808 138.707C172.33 138.969 175.397 136.326 175.658 132.804C175.92 129.282 173.276 126.215 169.755 125.954C166.233 125.692 163.166 128.335 162.905 131.857C162.643 135.379 165.286 138.446 168.808 138.707Z" fill="white"/>
<path d="M249.294 85.0103L245.485 71.698C245.287 71.0042 245.227 70.2781 245.309 69.5612C245.391 68.8442 245.614 68.1504 245.964 67.5195C246.314 66.8885 246.785 66.3327 247.35 65.8838C247.915 65.4349 248.563 65.1017 249.257 64.9032L263.308 60.8832C264.529 60.5339 265.807 60.4283 267.068 60.5727C268.33 60.7171 269.55 61.1086 270.661 61.7247C271.771 62.3409 272.749 63.1697 273.539 64.1638C274.329 65.158 274.915 66.298 275.265 67.5187C275.58 68.6146 275.698 69.7578 275.612 70.8949C275.5 72.3385 275.068 73.7389 274.346 74.9943C273.625 76.2498 272.633 77.3287 271.442 78.1528C270.583 78.7434 269.632 79.19 268.629 79.4748L249.294 85.0103Z" fill="black"/>
<path d="M275.409 70.8797C275.303 72.2942 274.881 73.6668 274.175 74.8967C273.468 76.1266 272.495 77.1824 271.326 77.9865C269.668 77.4146 268.153 76.4884 266.889 75.2722C265.624 74.056 264.64 72.579 264.004 70.9439C263.367 69.3087 263.095 67.5547 263.205 65.8036C263.316 64.0526 263.806 62.3466 264.642 60.8042C266.043 60.6068 267.47 60.7255 268.818 61.1517C270.167 61.5779 271.403 62.3007 272.435 63.267C273.468 64.2334 274.271 65.4187 274.786 66.7361C275.3 68.0534 275.513 69.4693 275.409 70.8797V70.8797Z" fill="#00BFA6"/>
<path d="M150.172 110.811C153.279 111.042 156.024 108.171 156.304 104.398C156.584 100.626 154.293 97.3805 151.186 97.15C148.079 96.9194 145.334 99.7907 145.054 103.563C144.774 107.336 147.065 110.581 150.172 110.811Z" fill="#00BFA6"/>
<path d="M223.244 133.679L228.17 134.044L231.462 121.442L224.191 120.903L223.244 133.679Z" fill="#FFB8B8"/>
<path d="M222.105 131.977L231.807 132.697L231.807 132.697C232.619 132.757 233.411 132.976 234.138 133.343C234.865 133.709 235.513 134.215 236.044 134.832C236.576 135.449 236.981 136.164 237.236 136.937C237.491 137.71 237.591 138.526 237.531 139.338L237.516 139.539L221.632 138.36L222.105 131.977Z" fill="#2F2E41"/>
<path d="M229.35 128.86C229.293 128.856 229.236 128.849 229.178 128.839L222.398 127.837C222.124 127.791 221.864 127.682 221.639 127.52C221.414 127.358 221.229 127.146 221.098 126.901C220.968 126.656 220.895 126.384 220.886 126.107C220.877 125.829 220.932 125.553 221.047 125.3L231.692 105.479C231.771 105.301 231.812 105.109 231.813 104.915C231.813 104.72 231.774 104.527 231.697 104.349C231.62 104.168 231.506 104.006 231.361 103.873C231.217 103.74 231.047 103.638 230.861 103.576C226.654 102.136 215.868 98.3329 206.598 94.1317C202.627 92.3318 200.217 89.9777 199.434 87.1348C198.402 83.3869 200.577 80.2001 200.67 80.0665L200.742 79.9619L209.648 81.4424L219.307 82.9906L239.761 95.9942C241.474 97.0919 242.711 98.7947 243.225 100.763C243.739 102.732 243.493 104.822 242.535 106.618L231.08 127.911C230.914 128.219 230.663 128.473 230.356 128.641C230.049 128.81 229.7 128.886 229.35 128.86Z" fill="#8D8D8D"/>
<path d="M214.218 41.0034C219.669 41.408 224.415 37.3175 224.82 31.8671C225.224 26.4166 221.134 21.6702 215.683 21.2657C210.233 20.8612 205.487 24.9516 205.082 30.4021C204.677 35.8525 208.768 40.5989 214.218 41.0034Z" fill="#FFB8B8"/>
<path d="M220.343 134.677L225.269 135.042L228.561 122.44L221.29 121.901L220.343 134.677Z" fill="#FFB8B8"/>
<path d="M219.205 132.975L228.906 133.695L228.907 133.695C229.719 133.755 230.511 133.975 231.238 134.341C231.965 134.707 232.612 135.213 233.144 135.83C233.675 136.447 234.08 137.162 234.335 137.935C234.59 138.708 234.691 139.524 234.63 140.336L234.615 140.537L218.732 139.358L219.205 132.975Z" fill="#2F2E41"/>
<path d="M226.449 129.856C226.392 129.852 226.334 129.845 226.277 129.835L219.496 128.833C219.223 128.787 218.963 128.678 218.738 128.516C218.512 128.354 218.327 128.142 218.197 127.897C218.066 127.652 217.994 127.38 217.985 127.103C217.976 126.825 218.031 126.549 218.146 126.296L228.791 106.475C228.869 106.298 228.91 106.105 228.911 105.911C228.912 105.716 228.873 105.524 228.795 105.345C228.718 105.164 228.604 105.002 228.46 104.869C228.316 104.736 228.145 104.635 227.959 104.572C223.752 103.132 212.966 99.329 203.697 95.1278C199.726 93.3279 197.315 90.9738 196.532 88.1309C195.5 84.3829 197.675 81.1962 197.768 81.0626L197.841 80.958L206.747 82.4385L216.406 83.9867L236.859 96.9903C238.573 98.088 239.809 99.7908 240.324 101.759C240.838 103.728 240.591 105.818 239.634 107.614L228.179 128.907C228.013 129.215 227.761 129.469 227.454 129.638C227.147 129.806 226.798 129.882 226.449 129.856Z" fill="#8D8D8D"/>
<path d="M216.847 46.8261L206.668 42.4344C206.668 42.4344 199.736 46.9863 201.959 59.7199C203.125 66.2923 202.14 73.0655 199.151 79.034C198.79 79.7731 198.383 80.4893 197.934 81.1784C197.934 81.1784 208.543 96.1067 220.167 86.4648L217.454 65.8603C217.454 65.8603 225.083 52.8917 216.847 46.8261Z" fill="#00BFA6"/>
<path d="M215.419 41.4296C214.17 39.223 213.278 36.2255 214.973 34.3399C216.646 32.4787 219.635 32.993 222.038 32.2928C225.384 31.3176 227.557 27.6323 227.222 24.1626C226.887 20.6929 224.348 17.6487 221.158 16.2435C217.968 14.8383 214.246 14.942 210.938 16.042C206.866 17.3962 203.242 20.3313 201.521 24.2624C199.801 28.1936 200.201 33.0966 202.918 36.418C205.831 39.9788 210.724 41.2334 215.315 41.5201" fill="#2F2E41"/>
<path d="M207.57 22.8147C205.693 24.1242 203.04 23.2838 201.234 21.8782C199.428 20.4727 198.02 18.5577 196.038 17.4137C192.544 15.3969 188.076 16.2336 184.405 17.9078C180.735 19.5821 177.409 22.0247 173.571 23.2675C169.733 24.5103 164.973 24.2325 162.365 21.1544C161.521 23.1142 161.303 25.2866 161.74 27.3751C162.176 29.4637 163.247 31.3666 164.805 32.8243C166.363 34.2819 168.333 35.2234 170.446 35.5202C172.559 35.817 174.712 35.4546 176.611 34.4826C180.878 32.299 183.52 27.2528 188.2 26.2202C190.79 25.6488 193.465 26.4623 195.977 27.3149C198.488 28.1675 201.105 29.0815 203.731 28.7093C206.357 28.3371 208.947 26.1943 208.813 23.5454L207.57 22.8147Z" fill="#2F2E41"/>
<path d="M260.348 69.0781C260.131 68.4837 259.786 67.9441 259.338 67.4973C258.89 67.0505 258.349 66.7074 257.754 66.4922C257.159 66.2769 256.524 66.1948 255.894 66.2515C255.264 66.3082 254.654 66.5024 254.107 66.8204L216.385 55.3635L215.212 64.7031L252.66 73.0281C253.255 73.9117 254.154 74.5463 255.186 74.8116C256.218 75.077 257.311 74.9546 258.259 74.4677C259.206 73.9808 259.942 73.1633 260.327 72.17C260.712 71.1766 260.72 70.0765 260.348 69.0781V69.0781Z" fill="#FFB8B8"/>
<path d="M223.046 56.7234L220 66.0402C219.913 66.3053 219.77 66.5486 219.581 66.7536C219.392 66.9585 219.161 67.1203 218.904 67.2278C218.646 67.3354 218.369 67.3862 218.09 67.3769C217.811 67.3675 217.538 67.2982 217.288 67.1736L208.545 62.8087C207.19 62.3583 206.07 61.3889 205.429 60.1132C204.788 58.8375 204.68 57.3598 205.128 56.0042C205.575 54.6487 206.542 53.526 207.816 52.8826C209.091 52.2392 210.568 52.1276 211.925 52.5723L221.527 54.2072C221.802 54.2541 222.064 54.3597 222.294 54.5168C222.525 54.6739 222.719 54.8788 222.863 55.1176C223.007 55.3564 223.098 55.6235 223.129 55.9006C223.161 56.1777 223.132 56.4583 223.046 56.7234L223.046 56.7234Z" fill="#00BFA6"/>
<path d="M255.364 76.1974C256.917 76.3127 258.27 75.1469 258.385 73.5935C258.501 72.0401 257.335 70.6873 255.781 70.572C254.228 70.4567 252.875 71.6226 252.76 73.176C252.645 74.7293 253.81 76.0821 255.364 76.1974Z" fill="#00BFA6"/>
<path d="M186.469 67.9216L183.77 67.7212L183.889 66.114C183.955 65.2266 183.283 64.4529 182.388 64.3865L176.989 63.9857C176.095 63.9194 175.316 64.5854 175.25 65.4728L175.131 67.08L172.431 66.8796C171.537 66.8133 170.758 67.4793 170.692 68.3666L169.976 78.0101C169.91 78.8974 170.582 79.6712 171.477 79.7375L185.515 80.7795C186.409 80.8459 187.188 80.1798 187.254 79.2925L187.97 69.6491C188.036 68.7617 187.364 67.988 186.469 67.9216ZM176.87 65.593L182.269 65.9937L182.15 67.601L176.75 67.2002L176.87 65.593ZM182.688 74.9807C182.666 75.2765 182.406 75.4985 182.108 75.4764L180.286 75.3411L180.152 77.1492C180.13 77.4451 179.87 77.667 179.602 77.6472L177.848 77.5169C177.549 77.4948 177.325 77.237 177.347 76.9411L177.479 75.1631L175.627 75.0256C175.329 75.0035 175.105 74.7456 175.127 74.4498L175.256 72.7086C175.278 72.4127 175.537 72.1908 175.836 72.2129L177.627 72.3459L177.764 70.5076C177.786 70.2117 178.045 69.9898 178.344 70.012L180.098 70.1422C180.397 70.1643 180.59 70.4198 180.568 70.7158L180.434 72.5239L182.317 72.6637C182.615 72.6858 182.839 72.9436 182.817 73.2395L182.688 74.9807Z" fill="#00BFA6"/>
</svg>
