<svg width="35" height="28" viewBox="0 0 35 28" fill="none" xmlns="http://www.w3.org/2000/svg">
<circle cx="21" cy="14" r="14" fill="#75F2BD"/>
<path d="M0 6.66667C0 5.74635 0.767679 5 1.71429 5H22.2857C23.2339 5 24 5.74635 24 6.66667C24 7.58854 23.2339 8.33333 22.2857 8.33333H1.71429C0.767679 8.33333 0 7.58854 0 6.66667ZM0 15C0 14.0781 0.767679 13.3333 1.71429 13.3333H22.2857C23.2339 13.3333 24 14.0781 24 15C24 15.9219 23.2339 16.6667 22.2857 16.6667H1.71429C0.767679 16.6667 0 15.9219 0 15ZM22.2857 25H1.71429C0.767679 25 0 24.2552 0 23.3333C0 22.4115 0.767679 21.6667 1.71429 21.6667H22.2857C23.2339 21.6667 24 22.4115 24 23.3333C24 24.2552 23.2339 25 22.2857 25Z" fill="black"/>
</svg>
