<svg width="82" height="33" viewBox="0 0 82 33" fill="none" xmlns="http://www.w3.org/2000/svg">
<path d="M51.6599 26.34C51.9165 28.288 52.8385 30.0674 53.8213 31.7811C53.8538 31.8395 53.8872 31.8969 53.9214 31.9553L64.0635 31.9141C64.2684 31.8601 64.4707 31.8008 64.672 31.7371C65.8161 31.3837 66.8954 30.8473 67.868 30.1487C71.5883 27.4453 73.0035 22.3597 72.3365 17.8106C71.9218 14.9843 70.669 12.1021 68.246 10.5889C66.9667 9.78844 65.3265 9.53325 63.8587 9.83858C63.8203 9.84572 63.782 9.8546 63.7427 9.86262C62.4801 10.1523 61.357 10.8638 60.721 12.0054C59.5772 14.0569 60.2735 16.5896 60.8492 18.8653C61.4231 21.1411 61.7406 23.8665 60.1082 25.5533C60.6429 23.9582 60.1011 22.0603 58.804 20.9885C57.8241 20.1799 56.463 19.8808 55.2238 20.1381C55.1052 20.1638 54.9883 20.1931 54.8733 20.2285C54.5951 20.3112 54.3271 20.4247 54.0743 20.5669C52.1454 21.6544 51.3725 24.1442 51.6599 26.34Z" fill="#F2F2F2"/>
<path d="M57.6958 31.7658C57.4151 31.8325 57.1334 31.8912 56.8499 31.9438L58.3834 31.9376C58.584 31.8827 58.7836 31.8243 58.9815 31.7606C59.4165 31.6227 59.8447 31.4647 60.2661 31.2867C61.9565 30.5694 63.5119 29.4965 64.6862 28.0725C65.2605 27.3826 65.7286 26.6108 66.0751 25.7827C66.4507 24.8467 66.6878 23.8611 66.7789 22.8567C66.9844 20.796 66.7576 18.6803 66.3418 16.6588C65.9127 14.5636 65.2254 12.5297 64.2958 10.6036C64.184 10.3728 64.0684 10.1434 63.9491 9.91547C63.9409 9.8967 63.9285 9.88006 63.9129 9.86681C63.8972 9.85356 63.8788 9.84406 63.8589 9.83903C63.8186 9.83138 63.7769 9.84002 63.7429 9.86306C63.7021 9.88668 63.672 9.92506 63.6587 9.97027C63.6454 10.0155 63.65 10.0641 63.6715 10.106C64.6294 11.9556 65.3578 13.9154 65.8405 15.9416C66.3129 17.9184 66.5849 19.9877 66.5033 22.0225C66.4254 23.9239 65.9364 25.7955 64.8159 27.3545C63.7926 28.7779 62.3762 29.9026 60.8074 30.6709C59.8144 31.151 58.7707 31.5183 57.6958 31.7658V31.7658Z" fill="#00BFA6"/>
<path d="M54.3302 31.9539L54.7823 31.9521C54.8327 31.8943 54.8813 31.8356 54.9291 31.7769C55.9538 30.5215 56.6455 29.0279 56.9399 27.4343C57.2974 25.4456 57.0047 23.3947 56.1053 21.5854C55.8544 21.078 55.5592 20.5938 55.2232 20.1383C55.1046 20.1641 54.9877 20.1934 54.8726 20.2288C55.7564 21.3899 56.3532 22.7435 56.6143 24.1791C56.8474 25.5244 56.7773 26.9048 56.4091 28.2195C56.0408 29.5343 55.3837 30.7502 54.4857 31.7787C54.4353 31.8374 54.3832 31.8961 54.3302 31.9539Z" fill="#00BFA6"/>
<path d="M13.5961 30.6355C13.5326 31.1501 13.2931 31.6216 13.0374 32.076C13.029 32.0915 13.0203 32.1067 13.0113 32.1222L10.3348 32.133C10.2807 32.1192 10.2272 32.104 10.1739 32.0876C9.87121 31.9968 9.58525 31.8575 9.32711 31.6753C8.33955 30.9698 7.95521 29.6308 8.12148 28.429C8.22487 27.6822 8.5493 26.919 9.18546 26.5144C9.53095 26.3021 9.94387 26.228 10.3416 26.307C10.3518 26.3089 10.3619 26.3111 10.3723 26.3131C10.5378 26.3444 10.6949 26.4105 10.8331 26.5068C10.9713 26.6031 11.0876 26.7277 11.1743 26.8721C11.4805 27.411 11.3022 28.0809 11.1551 28.6827C11.0085 29.2845 10.9306 30.0044 11.365 30.446C11.3008 30.2608 11.2872 30.0619 11.3253 29.8697C11.3635 29.6775 11.4522 29.4989 11.5823 29.3523C11.7124 29.2057 11.8791 29.0964 12.0654 29.0357C12.2517 28.9749 12.4509 28.9648 12.6424 29.0065C12.6737 29.013 12.7046 29.0205 12.7351 29.0296C12.8086 29.0508 12.8796 29.0802 12.9466 29.1172C13.458 29.4001 13.6672 30.0554 13.5961 30.6355Z" fill="#F2F2F2"/>
<path d="M76.7294 20.4431C76.5806 20.9398 78.3753 17.9351 78.4266 18.4539C80.3235 19.6231 80.3235 19.6231 78.4319 18.5066L77.5175 18.7628L75.8854 20.3327L76.7294 20.4431L77.2839 20.4131C77.339 20.4222 77.3941 20.4298 77.4495 20.4362C77.7631 20.4748 78.081 20.4624 78.3906 20.3993C79.5785 20.1507 80.4689 19.0793 80.8001 17.912C81.0058 17.1868 81.0157 16.3575 80.596 15.7313C80.3651 15.3979 80.0168 15.164 79.6209 15.0764C79.6109 15.074 79.6007 15.072 79.5904 15.0696C79.4262 15.0317 79.2559 15.029 79.0906 15.0616C78.9252 15.0942 78.7687 15.1614 78.6313 15.2589C78.1341 15.6291 78.028 16.3141 77.9206 16.9242C77.8128 17.5341 77.3047 20.2135 76.7294 20.4431C76.687 20.6345 76.8626 20.2994 76.7294 20.4431C76.7717 20.2518 80.9144 16.732 80.8543 16.5455C80.7942 16.3589 80.6855 16.1918 80.5393 16.0612C80.3932 15.9306 80.2149 15.8413 80.0229 15.8025C79.9915 15.7959 79.9602 15.7903 79.9287 15.7864C79.8528 15.7762 80.3235 19.6231 79.6998 15.7815C79.1178 15.8348 76.8975 19.8835 76.7294 20.4431Z" fill="#F2F2F2"/>
<path d="M71.6456 27.8641C71.5508 28.3739 71.6368 28.8958 71.7435 29.4061C71.7469 29.4234 71.7506 29.4405 71.7544 29.458L71.8285 30.0841L72.0989 30.8292L72.6839 30.9588L73.1334 30.9843L73.5512 30.8378L73.9109 30.5955L74.3028 30.2761C74.3586 30.2793 74.4142 30.2809 74.47 30.2814C74.7859 30.2861 75.1006 30.2397 75.4017 30.1438C76.5561 29.7693 77.3266 28.6088 77.5309 27.4127C77.6576 26.6696 77.5787 25.844 77.0943 25.2664C76.829 24.9597 76.4577 24.7644 76.0546 24.7197C76.0444 24.7184 76.0341 24.7175 76.0236 24.7163C75.8563 24.6962 75.6866 24.7117 75.5258 24.7618C75.3649 24.812 75.2165 24.8956 75.0902 25.0072C74.6357 25.4285 74.6035 26.121 74.5621 26.7391C74.5202 27.357 74.3772 28.0669 73.8298 28.3568C74.028 28.2196 74.2256 28.0845 74.2472 27.8897C74.465 27.4117 74.6418 26.9181 74.5621 26.7391C74.4823 26.5601 73.747 26.915 73.5877 26.8009C73.4284 26.6867 73.2416 26.617 73.0465 26.5989C73.0146 26.5957 72.9829 26.5935 72.9511 26.593C72.8746 26.591 72.7981 26.5976 72.723 26.6127C72.1501 26.728 71.7528 27.2897 71.6456 27.8641Z" fill="#F2F2F2"/>
<path d="M12.0149 32.0783C12.0891 32.0953 12.1636 32.1102 12.2385 32.1235L11.8338 32.1251C11.7808 32.111 11.7279 32.0961 11.6756 32.0797C11.5605 32.0442 11.4472 32.0035 11.3356 31.9574C10.883 31.7758 10.4806 31.4881 10.1623 31.1186C10.0093 30.9378 9.88406 30.7351 9.79084 30.5173C9.68973 30.2712 9.62505 30.0116 9.59885 29.7467C9.5507 29.1992 9.58511 28.6475 9.70093 28.1102C9.80969 27.5564 9.98669 27.0182 10.2279 26.5079C10.2569 26.4468 10.2869 26.386 10.3179 26.3256C10.32 26.3206 10.3233 26.3162 10.3274 26.3127C10.3315 26.3091 10.3363 26.3066 10.3415 26.3052C10.3522 26.3031 10.3632 26.3053 10.3722 26.3113C10.383 26.3175 10.3911 26.3275 10.3947 26.3394C10.3983 26.3513 10.3972 26.3642 10.3916 26.3753C10.1427 26.8654 9.95471 27.3841 9.83167 27.9199C9.70484 28.4454 9.65039 28.9858 9.66981 29.526C9.68106 30.0285 9.83989 30.5166 10.1265 30.9294C10.4051 31.3012 10.7708 31.5988 11.1914 31.796C11.4545 31.9206 11.7307 32.0153 12.0149 32.0783Z" fill="white"/>
<path d="M12.9033 32.1216L12.7839 32.1221C12.7705 32.1069 12.7576 32.0915 12.7448 32.0762C12.4717 31.747 12.2859 31.3543 12.2048 30.9343C12.1062 30.4102 12.179 29.8682 12.4125 29.3887C12.4777 29.2543 12.5546 29.1258 12.6423 29.0049C12.6736 29.0115 12.7045 29.0189 12.735 29.028C12.5042 29.3364 12.3496 29.6949 12.2838 30.0744C12.2251 30.43 12.2466 30.7942 12.3466 31.1404C12.4466 31.4866 12.6226 31.8062 12.8619 32.0757C12.8753 32.0911 12.8892 32.1064 12.9033 32.1216Z" fill="white"/>
<path d="M37.6741 18.7264L46.0514 18.6924L46.1297 16.1163C46.1331 16.0046 46.1123 15.8935 46.0686 15.7907C46.025 15.6878 45.9596 15.5957 45.8769 15.5205C45.7942 15.4454 45.6962 15.3891 45.5897 15.3554C45.4831 15.3218 45.3706 15.3116 45.2597 15.3257L40.3871 15.9424L40.3865 15.9424C39.6638 15.9473 38.9725 16.2384 38.464 16.7521C37.9555 17.2657 37.6714 17.96 37.6739 18.6827L37.6741 18.7264Z" fill="#00BFA6"/>
<path d="M41.3726 9.57494L47.215 9.55123C47.2927 9.55089 47.3697 9.56587 47.4416 9.5953C47.5135 9.62474 47.5789 9.66805 47.6341 9.72277C47.6893 9.77749 47.7331 9.84254 47.7631 9.91421C47.7931 9.98588 47.8087 10.0628 47.809 10.1405L47.8328 15.9828C47.8331 16.0605 47.8181 16.1375 47.7887 16.2094C47.7592 16.2813 47.7159 16.3468 47.6612 16.4019C47.6065 16.4571 47.5414 16.5009 47.4698 16.5309C47.3981 16.561 47.3212 16.5766 47.2435 16.5769L41.4012 16.6006C41.3235 16.6009 41.2465 16.5859 41.1745 16.5565C41.1026 16.5271 41.0372 16.4837 40.9821 16.429C40.9269 16.3743 40.8831 16.3093 40.853 16.2376C40.823 16.1659 40.8074 16.089 40.8071 16.0113L40.7834 10.169C40.7831 10.0913 40.7981 10.0143 40.8275 9.94236C40.8569 9.87045 40.9002 9.80504 40.955 9.74987C41.0097 9.69471 41.0747 9.65087 41.1464 9.62085C41.2181 9.59083 41.2949 9.57523 41.3726 9.57494V9.57494Z" fill="#CCCCCC"/>
<path d="M40.7834 10.169L40.7866 10.9455L47.8122 10.917L47.809 10.1405C47.8087 10.0628 47.7931 9.98588 47.7631 9.91421C47.7331 9.84254 47.6893 9.77749 47.6341 9.72277C47.5789 9.66805 47.5135 9.62474 47.4416 9.5953C47.3697 9.56587 47.2927 9.55089 47.215 9.55123L41.3726 9.57494C41.2949 9.57523 41.2181 9.59083 41.1464 9.62085C41.0747 9.65087 41.0097 9.69471 40.955 9.74988C40.9002 9.80504 40.8569 9.87045 40.8275 9.94236C40.7981 10.0143 40.7831 10.0913 40.7834 10.169Z" fill="#B3B3B3"/>
<path d="M26.7555 11.2465C26.7955 11.1154 26.8638 10.9947 26.9556 10.8929C27.0473 10.791 27.1603 10.7105 27.2865 10.657C27.4127 10.6036 27.5491 10.5784 27.6861 10.5833C27.8231 10.5883 27.9573 10.6232 28.0793 10.6856L36.1059 7.76901L36.4681 9.77568L28.4643 12.0116C28.3459 12.2097 28.1589 12.3574 27.9388 12.4268C27.7186 12.4962 27.4807 12.4824 27.2701 12.3881C27.0595 12.2938 26.8907 12.1255 26.7959 11.9151C26.701 11.7047 26.6867 11.4668 26.7555 11.2465V11.2465Z" fill="#FFB8B8"/>
<path opacity="0.2" d="M26.7555 11.2465C26.7955 11.1154 26.8638 10.9947 26.9556 10.8929C27.0473 10.791 27.1603 10.7105 27.2865 10.657C27.4127 10.6036 27.5491 10.5784 27.6861 10.5833C27.8231 10.5883 27.9573 10.6232 28.0793 10.6856L36.1059 7.76901L36.4681 9.77568L28.4643 12.0116C28.3459 12.2097 28.1589 12.3574 27.9388 12.4268C27.7186 12.4962 27.4807 12.4824 27.2701 12.3881C27.0595 12.2938 26.8907 12.1255 26.7959 11.9151C26.701 11.7047 26.6867 11.4668 26.7555 11.2465V11.2465Z" fill="black"/>
<path d="M34.6802 8.13806L35.4473 10.1179C35.4691 10.1742 35.5028 10.2252 35.5461 10.2673C35.5894 10.3094 35.6413 10.3417 35.6982 10.362C35.7551 10.3823 35.8157 10.3901 35.8759 10.3848C35.936 10.3795 35.9944 10.3614 36.0469 10.3315L37.8874 9.2858C38.1749 9.17249 38.4058 8.94978 38.5294 8.6665C38.653 8.38322 38.6592 8.06248 38.5467 7.77461C38.4342 7.48674 38.2122 7.25523 37.9292 7.13083C37.6463 7.00642 37.3256 6.99928 37.0374 7.11096L34.9794 7.57618C34.9205 7.58951 34.8651 7.61539 34.8171 7.65205C34.7691 7.68871 34.7295 7.73529 34.7011 7.78861C34.6727 7.84194 34.6562 7.90075 34.6526 7.96106C34.6489 8.02136 34.6584 8.08173 34.6802 8.13806V8.13806Z" fill="#00BFA6"/>
<path d="M26.1295 13.084L29.0151 14.3815L28.6427 15.8067C27.9236 18.5588 27.7414 21.4237 28.1061 24.2447V24.2447L26.002 24.6931L24.2383 20.2488L24.8288 15.184L26.1295 13.084Z" fill="#00BFA6"/>
<path d="M20.5064 19.6959C22.3987 19.6882 23.9464 21.0576 24.0282 22.7799L17.0097 22.8084C17.0776 21.0854 18.6141 19.7036 20.5064 19.6959Z" fill="black"/>
<path d="M21.9802 19.9883C22.0471 12.2113 26.4789 12.9088 26.4789 12.9088C26.4789 12.9088 26.4059 15.3297 26.3664 15.4052C23.5658 20.7564 28.249 26.9977 34.1733 25.822C34.285 25.7998 34.3923 25.7774 34.4953 25.7546C35.2459 25.5947 35.9074 25.1549 36.3452 24.5246C36.7831 23.8943 36.9644 23.1209 36.8524 22.3617C36.2493 17.674 39.1545 17.7452 39.1545 17.7452L43.4022 17.7279L45.6 15.7337C45.6776 15.6633 45.7712 15.613 45.8728 15.5872C45.9743 15.5613 46.0806 15.5607 46.1824 15.5855C46.2842 15.6102 46.3783 15.6595 46.4567 15.7291C46.535 15.7986 46.5951 15.8863 46.6317 15.9845L46.9186 16.7536C46.9186 16.7536 51.1099 17.173 50.7774 21.2766L49.4822 21.2819C49.4858 21.3984 49.4816 21.5151 49.4696 21.631L39.8029 21.5917C39.2362 21.5894 38.7379 22.0505 38.7379 22.6172C38.7379 22.7551 38.7657 22.8917 38.8196 23.0186C38.8736 23.1456 38.9526 23.2604 39.052 23.3561C39.1513 23.4518 39.2689 23.5265 39.3978 23.5757C39.5267 23.6249 39.6642 23.6476 39.802 23.6424L41.3603 23.5842C41.849 25.7206 40.6765 27.1655 39.3819 28.0763C38.163 28.9215 36.7143 29.3729 35.231 29.3697L30.9972 29.3869C25.4985 29.4092 24.5196 24.7872 24.5196 24.7872C21.6344 23.5769 21.9802 19.9883 21.9802 19.9883Z" fill="black"/>
<path d="M20.8168 31.9582C18.1053 31.9692 15.8983 29.78 15.8873 27.0686C15.8763 24.3571 18.0655 22.1501 20.777 22.1391C23.4884 22.1281 25.6954 24.3172 25.7064 27.0287C25.7175 29.7402 23.5283 31.9472 20.8168 31.9582Z" fill="black"/>
<path d="M20.8014 28.2516C20.1368 28.2543 19.5958 27.7177 19.5931 27.0531C19.5904 26.3884 20.127 25.8474 20.7917 25.8447C21.4563 25.842 21.9973 26.3787 22 27.0433C22.0027 27.708 21.4661 28.2489 20.8014 28.2516Z" fill="white"/>
<path d="M45.6054 31.8571C42.4841 31.8698 39.9436 29.3498 39.931 26.2286C39.9183 23.1074 42.4383 20.5669 45.5595 20.5542C48.6807 20.5415 51.2212 23.0615 51.2339 26.1827C51.2465 29.3039 48.7266 31.8444 45.6054 31.8571Z" fill="black"/>
<path d="M45.5878 27.5927C44.8228 27.5958 44.2 26.9781 44.1969 26.213C44.1938 25.4479 44.8115 24.8251 45.5766 24.822C46.3417 24.8189 46.9644 25.4366 46.9675 26.2017C46.9706 26.9668 46.3529 27.5896 45.5878 27.5927Z" fill="white"/>
<path d="M29.0097 14.7673L30.0345 11.9485C30.088 11.8016 30.1119 11.6456 30.105 11.4894C30.0982 11.3333 30.0606 11.18 29.9945 11.0383C29.9284 10.8967 29.835 10.7695 29.7197 10.6639C29.6044 10.5583 29.4695 10.4765 29.3226 10.4231L26.3473 9.3415C26.0888 9.24751 25.8143 9.20535 25.5396 9.21742C25.2648 9.2295 24.9951 9.29558 24.7458 9.4119C24.4966 9.52821 24.2727 9.69248 24.0869 9.89531C23.9012 10.0982 23.7572 10.3356 23.6632 10.5941C23.5785 10.8261 23.5357 11.0713 23.5369 11.3183C23.5393 11.632 23.6115 11.9411 23.7483 12.2233C23.8852 12.5055 24.0832 12.7537 24.3279 12.9498C24.5047 13.0905 24.7033 13.2014 24.9158 13.2781L29.0097 14.7673Z" fill="black"/>
<path d="M23.5791 11.3199C23.5806 11.6272 23.651 11.9302 23.7851 12.2068C23.9191 12.4833 24.1135 12.7262 24.3538 12.9177C24.721 12.8193 25.0623 12.642 25.354 12.3984C25.6457 12.1547 25.8809 11.8504 26.0432 11.5067C26.2054 11.1629 26.2909 10.788 26.2936 10.4079C26.2963 10.0278 26.2162 9.65162 26.0588 9.30561C25.7591 9.24171 25.449 9.24575 25.151 9.31741C24.8531 9.38907 24.5751 9.52654 24.3372 9.71974C24.0994 9.91293 23.9079 10.1569 23.7767 10.4338C23.6455 10.7107 23.578 11.0135 23.5791 11.3199V11.3199Z" fill="#00BFA6"/>
<path d="M50.038 21.8478C49.3631 21.8506 48.8132 21.1884 48.8099 20.3689C48.8066 19.5493 49.351 18.8827 50.026 18.88C50.7009 18.8772 51.2507 19.5394 51.2541 20.3589C51.2574 21.1785 50.713 21.8451 50.038 21.8478Z" fill="#00BFA6"/>
<path d="M33.9007 25.6799L32.8306 25.6842L32.3101 22.9107L33.8896 22.9044L33.9007 25.6799Z" fill="#FFB8B8"/>
<path d="M34.1719 25.3282L32.0643 25.3367L32.0643 25.3367C31.8879 25.3374 31.7134 25.3728 31.5507 25.441C31.388 25.5091 31.2403 25.6087 31.1161 25.7339C30.9919 25.8591 30.8936 26.0076 30.8268 26.1708C30.7599 26.334 30.7259 26.5088 30.7266 26.6852L30.7268 26.7289L34.1774 26.715L34.1719 25.3282Z" fill="#2F2E41"/>
<path d="M32.6549 24.5462C32.6674 24.5461 32.6799 24.5455 32.6924 24.5443L34.1729 24.4304C34.2327 24.4246 34.2904 24.4052 34.3416 24.3735C34.3927 24.3419 34.4359 24.2989 34.4679 24.2479C34.4998 24.197 34.5196 24.1393 34.5257 24.0795C34.5318 24.0197 34.5241 23.9592 34.5032 23.9028L32.5033 19.4583C32.489 19.4186 32.483 19.3764 32.4858 19.3344C32.4886 19.2923 32.5 19.2513 32.5194 19.2139C32.5388 19.1761 32.5659 19.1427 32.5991 19.1161C32.6322 19.0895 32.6706 19.0702 32.7118 19.0595C33.6427 18.8121 36.0311 18.1538 38.0979 17.3865C38.9833 17.0577 39.5399 16.5855 39.7522 15.9831C40.032 15.1888 39.6103 14.4672 39.5923 14.4369L39.5781 14.4132L37.6312 14.5981L35.5205 14.7863L30.9035 17.2863C30.5166 17.4975 30.2235 17.8467 30.0826 18.2644C29.9416 18.682 29.9632 19.1374 30.1429 19.5399L32.2956 24.3149C32.3267 24.384 32.3772 24.4427 32.441 24.4837C32.5047 24.5248 32.579 24.5465 32.6549 24.5462Z" fill="#8D8D8D"/>
<path d="M37.2557 5.78996C36.0718 5.79476 35.1082 4.83895 35.1034 3.6551C35.0986 2.47124 36.0544 1.50764 37.2383 1.50284C38.4221 1.49804 39.3857 2.45385 39.3905 3.6377C39.3953 4.82156 38.4395 5.78515 37.2557 5.78996Z" fill="#FFB8B8"/>
<path d="M34.513 25.9397L33.4429 25.944L32.9224 23.1705L34.502 23.1642L34.513 25.9397Z" fill="#FFB8B8"/>
<path d="M34.7832 25.5899L32.6757 25.5984L32.6756 25.5984C32.4992 25.5991 32.3247 25.6346 32.162 25.7027C31.9993 25.7709 31.8517 25.8704 31.7275 25.9956C31.6032 26.1208 31.5049 26.2693 31.4381 26.4325C31.3712 26.5958 31.3372 26.7705 31.3379 26.9469L31.3381 26.9906L34.7888 26.9767L34.7832 25.5899Z" fill="#2F2E41"/>
<path d="M33.2662 24.806C33.2787 24.8059 33.2912 24.8053 33.3038 24.804L34.7842 24.6902C34.844 24.6844 34.9018 24.6649 34.9529 24.6333C35.0041 24.6016 35.0473 24.5587 35.0792 24.5077C35.1111 24.4567 35.1309 24.3991 35.137 24.3393C35.1432 24.2794 35.1354 24.219 35.1145 24.1626L33.1146 19.718C33.1003 19.6784 33.0943 19.6362 33.0971 19.5942C33.0999 19.5521 33.1113 19.5111 33.1307 19.4737C33.1501 19.4358 33.1772 19.4025 33.2104 19.3759C33.2436 19.3493 33.282 19.33 33.3231 19.3193C34.254 19.0719 36.6425 18.4136 38.7092 17.6462C39.5946 17.3175 40.1512 16.8453 40.3635 16.2428C40.6434 15.4486 40.2217 14.7269 40.2036 14.6967L40.1894 14.673L38.2425 14.8579L36.1318 15.0461L31.5148 17.546C31.1279 17.7573 30.8348 18.1065 30.6939 18.5241C30.5529 18.9418 30.5745 19.3972 30.7542 19.7996L32.9069 24.5746C32.938 24.6438 32.9885 24.7024 33.0523 24.7435C33.1161 24.7845 33.1904 24.8062 33.2662 24.806Z" fill="#8D8D8D"/>
<path d="M36.5982 7.00886L38.8643 6.21412C38.8643 6.21412 40.2934 7.30284 39.62 10.0208C39.2684 11.4234 39.3785 12.902 39.9339 14.2371C40.0008 14.4022 40.0778 14.5632 40.1644 14.7189C40.1644 14.7189 37.6457 17.784 35.2799 15.5243L36.1784 11.1128C36.1784 11.1128 34.7264 8.19477 36.5982 7.00886Z" fill="#00BFA6"/>
<path d="M36.9896 5.86492C37.2928 5.40703 37.531 4.77285 37.1934 4.33973C36.8601 3.91219 36.2063 3.97803 35.6978 3.79032C34.9894 3.52886 34.5759 2.69961 34.7008 1.95496C34.8257 1.2103 35.4205 0.591013 36.1311 0.335724C36.8417 0.0804345 37.6445 0.159265 38.3426 0.447093C39.2019 0.801412 39.9406 1.49057 40.2527 2.36608C40.5648 3.24158 40.4041 4.29497 39.7667 4.97147C39.0833 5.69674 38.007 5.89366 37.0105 5.88602" fill="#2F2E41"/>
<path d="M38.9685 1.96038C39.3542 2.2718 39.9402 2.1304 40.3518 1.85405C40.7634 1.5777 41.0966 1.18522 41.5423 0.968045C42.328 0.585182 43.2807 0.833712 44.0486 1.25115C44.8165 1.66859 45.498 2.24684 46.3086 2.57358C47.1192 2.90032 48.152 2.91244 48.7622 2.28679C48.9148 2.7231 48.9291 3.19585 48.803 3.64055C48.677 4.08524 48.4168 4.48023 48.058 4.77161C47.6992 5.06299 47.2593 5.23658 46.7982 5.26868C46.3371 5.30079 45.8773 5.18985 45.4816 4.951C44.5927 4.41447 44.0983 3.28396 43.1025 2.98988C42.5515 2.82714 41.9611 2.96241 41.4054 3.10858C40.8498 3.25475 40.2705 3.4126 39.7086 3.29237C39.1468 3.17213 38.6197 2.66982 38.6888 2.09945L38.9685 1.96038Z" fill="#2F2E41"/>
<path d="M26.8603 11.1571C26.9162 11.0319 26.9988 10.9205 27.1024 10.8308C27.206 10.741 27.3281 10.6751 27.4599 10.6376C27.5918 10.6001 27.7302 10.592 27.8656 10.6138C28.0009 10.6356 28.1298 10.6868 28.2432 10.7638L36.5683 8.8598L36.6801 10.8958L28.4617 12.1272C28.3196 12.3091 28.1158 12.4326 27.8889 12.4743C27.6619 12.516 27.4275 12.473 27.2301 12.3534C27.0327 12.2338 26.886 12.046 26.8179 11.8255C26.7497 11.605 26.7648 11.3672 26.8603 11.1571V11.1571Z" fill="#FFB8B8"/>
<path d="M35.1098 9.05381L35.6268 11.1135C35.6416 11.1721 35.6687 11.2269 35.7065 11.274C35.7443 11.3212 35.7918 11.3597 35.8458 11.3868C35.8997 11.4139 35.9589 11.4291 36.0193 11.4313C36.0797 11.4336 36.1398 11.4227 36.1957 11.3996L38.1514 10.5888C38.451 10.512 38.7079 10.3194 38.8657 10.0535C39.0235 9.78748 39.0694 9.46976 38.9932 9.17001C38.917 8.87026 38.725 8.61298 38.4594 8.45461C38.1937 8.29624 37.8761 8.24972 37.5762 8.32526L35.4761 8.53303C35.416 8.53899 35.3579 8.55785 35.3057 8.58831C35.2535 8.61877 35.2085 8.66012 35.1737 8.70954C35.139 8.75896 35.1153 8.8153 35.1042 8.87471C35.0932 8.93411 35.0951 8.9952 35.1098 9.0538L35.1098 9.05381Z" fill="#00BFA6"/>
<path d="M27.8304 12.7714C27.493 12.7728 27.2183 12.5003 27.2169 12.1629C27.2156 11.8254 27.488 11.5507 27.8255 11.5494C28.163 11.548 28.4376 11.8204 28.439 12.1579C28.4404 12.4954 28.1679 12.7701 27.8304 12.7714Z" fill="#00BFA6"/>
<path d="M0.853298 32.084C0.853463 32.1072 0.862769 32.1293 0.879188 32.1456C0.895607 32.1619 0.917806 32.171 0.940933 32.171L73.1224 31.878C73.1456 31.8779 73.1677 31.8687 73.184 31.8522C73.2003 31.8358 73.2094 31.8136 73.2093 31.7904C73.2092 31.7673 73.2 31.7451 73.1835 31.7288C73.1671 31.7125 73.1449 31.7034 73.1217 31.7035L0.940225 31.9964C0.917099 31.9966 0.894974 32.0059 0.878688 32.0223C0.862401 32.0387 0.853275 32.0609 0.853298 32.084V32.084Z" fill="black"/>
<path d="M42.8434 12.0266L43.4299 12.0242L43.4285 11.675C43.4277 11.4823 43.5847 11.3252 43.7789 11.3244L44.9519 11.3197C45.1462 11.3189 45.3044 11.4747 45.3052 11.6674L45.3066 12.0166L45.8931 12.0142C46.0874 12.0134 46.2457 12.1692 46.2464 12.3619L46.2549 14.4569C46.2557 14.6497 46.0987 14.8067 45.9045 14.8075L42.8547 14.8199C42.6605 14.8207 42.5022 14.6649 42.5014 14.4722L42.4929 12.3772C42.4921 12.1844 42.6491 12.0274 42.8434 12.0266ZM44.9533 11.6689L43.7804 11.6736L43.7818 12.0228L44.9548 12.018L44.9533 11.6689ZM43.5536 13.6095C43.5539 13.6738 43.6066 13.7257 43.6714 13.7254L44.0673 13.7238L44.0689 14.1166C44.0691 14.1809 44.1219 14.2328 44.18 14.2326L44.5613 14.231C44.626 14.2308 44.6783 14.1784 44.6781 14.1142L44.6765 13.7279L45.079 13.7263C45.1438 13.726 45.1961 13.6737 45.1958 13.6094L45.1943 13.2311C45.194 13.1668 45.1413 13.115 45.0765 13.1152L44.6872 13.1168L44.6856 12.7174C44.6853 12.6532 44.6326 12.6013 44.5678 12.6015L44.1866 12.6031C44.1218 12.6033 44.0761 12.6556 44.0764 12.7199L44.078 13.1127L43.6689 13.1144C43.6041 13.1147 43.5518 13.167 43.5521 13.2313L43.5536 13.6095Z" fill="#00BFA6"/>
</svg>
