<svg width="52" height="50" viewBox="0 0 52 50" fill="none" xmlns="http://www.w3.org/2000/svg">
<path d="M2.60149 49.8105H38.7822V49.9993H2.60149V49.8105Z" fill="#3F3D56"/>
<path d="M0.481263 15.2039C0.390738 15.3105 0.323561 15.4349 0.284082 15.5692C0.244605 15.7034 0.233709 15.8445 0.252095 15.9832C0.270481 16.1219 0.317739 16.2552 0.390814 16.3745C0.463889 16.4937 0.561152 16.5963 0.676301 16.6755L5.54336 20.0234L7.68651 21.4549C7.80825 21.5362 7.95583 21.5693 8.10053 21.5476C8.24523 21.5259 8.3767 21.451 8.46935 21.3375C8.52337 21.2714 8.5624 21.1943 8.58376 21.1116C8.60512 21.0288 8.6083 20.9424 8.59307 20.8583C8.57784 20.7743 8.54458 20.6945 8.49556 20.6245C8.44655 20.5546 8.38296 20.4961 8.3092 20.4532L6.23341 19.2456L2.61065 15.7888L4.93957 13.2826L3.21444 11.9863L0.481263 15.2039Z" fill="#A0616A"/>
<path d="M11.9256 46.7274H13.1161L13.8232 36.8755L10.8043 36.7891L11.9256 46.7274Z" fill="#A0616A"/>
<path d="M11.8401 49.9263C12.1576 50.0714 12.4235 48.8954 12.6912 49.159C13.4402 49.8965 14.5872 50.0571 15.5869 49.7351L15.237 49.7312C15.2973 49.7118 15.3531 49.6803 15.4009 49.6386C15.4488 49.5969 15.4876 49.546 15.5152 49.4888C15.5428 49.4317 15.5585 49.3695 15.5615 49.3061C15.5644 49.2427 15.5544 49.1793 15.5321 49.1199C15.5055 49.0487 15.462 48.9851 15.4055 48.9346C15.3489 48.884 15.2809 48.8479 15.2073 48.8295L14.4107 48.63L13.16 46.4263L11.8832 46.3398C11.5986 46.7034 11.3999 47.1269 11.3022 47.5785C11.2045 48.0301 11.2102 48.498 11.319 48.9471C11.4349 49.4209 11.6138 49.8228 11.8401 49.9263Z" fill="#2F2E41"/>
<path d="M3.99979 46.7264H5.19035L5.89746 36.8744L2.79221 36.2695L3.99979 46.7264Z" fill="#A0616A"/>
<path d="M3.91334 49.9248C4.23079 50.07 4.49669 48.8939 4.76446 49.1576C5.51346 49.895 6.66041 50.0556 7.66016 49.7336L7.31026 49.7297C7.37059 49.7103 7.42635 49.6788 7.47417 49.6371C7.522 49.5955 7.56088 49.5445 7.58847 49.4874C7.61607 49.4302 7.63179 49.368 7.63469 49.3046C7.6376 49.2412 7.62762 49.1778 7.60537 49.1184C7.57875 49.0473 7.53527 48.9837 7.47869 48.9331C7.4221 48.8825 7.3541 48.8465 7.28053 48.828L6.48398 48.6285L5.23326 46.4248L3.87021 46.252L3.83578 46.3084C3.57228 46.7339 3.40238 47.2108 3.33743 47.7073C3.27249 48.2038 3.31399 48.7085 3.45916 49.1876C3.57252 49.5515 3.72682 49.8395 3.91334 49.9248Z" fill="#2F2E41"/>
<path d="M2.65015 12.2104C3.74499 12.363 4.50296 12.9637 4.81166 14.1621L6.82412 10.4393C6.94345 10.2028 6.97369 9.931 6.9093 9.67389C6.84491 9.41678 6.6902 9.19153 6.47353 9.03941C6.24355 8.87796 5.96067 8.81072 5.68282 8.85147C5.40497 8.89222 5.15318 9.03787 4.97904 9.25859L2.65015 12.2104Z" fill="#6C63FF"/>
<path d="M0.54028 35.8382C5.43339 38.0073 10.441 38.2742 15.5488 36.8752C13.6836 29.6273 11.4812 23.0735 11.4948 17.6899L6.49194 17.2578L5.72166 18.4813C3.8941 21.3842 2.6326 24.608 2.00401 27.9818L0.54028 35.8382Z" fill="#2F2E41"/>
<path d="M8.73458 6.54069C7.30545 6.54069 6.1469 5.37994 6.1469 3.94808C6.1469 2.51622 7.30545 1.35547 8.73458 1.35547C10.1637 1.35547 11.3223 2.51622 11.3223 3.94808C11.3223 5.37994 10.1637 6.54069 8.73458 6.54069Z" fill="#A0616A"/>
<path d="M5.88867 8.52904L9.08009 8.70189L9.59766 5.85001L7.00998 5.41797L5.88867 8.52904Z" fill="#A0616A"/>
<path d="M6.23207 17.6883L9.72846 17.787L11.4937 18.034C12.3602 15.1663 13.0896 12.3052 11.3212 9.91051L9.25103 7.83642L6.14582 7.75L6.10468 7.77355C5.61154 8.05662 5.22936 8.49956 5.0211 9.02937C4.81285 9.55919 4.79095 10.1443 4.95902 10.6882C5.7296 13.1971 6.22458 15.5663 6.23207 17.6883Z" fill="#6C63FF"/>
<path d="M11.5816 25.7267L11.7985 28.6964C11.8101 28.8555 11.8787 29.005 11.9916 29.1174C12.1045 29.2298 12.2542 29.2976 12.413 29.3082C12.5046 29.3143 12.5964 29.3013 12.6826 29.2698C12.7688 29.2384 12.8475 29.1894 12.9137 29.1258C12.98 29.0622 13.0322 28.9855 13.0672 28.9006C13.1022 28.8156 13.1192 28.7243 13.117 28.6324L13.0479 25.7267L10.8915 17.5168L10.8053 12.5044L8.39012 12.418L8.56264 18.2081L11.5816 25.7267Z" fill="#A0616A"/>
<path d="M8.13109 12.8507C9.15505 12.4335 10.1114 12.5733 10.9775 13.4557L10.8589 9.22361C10.8439 8.95896 10.7343 8.70856 10.55 8.51831C10.3658 8.32806 10.1193 8.2107 9.85573 8.18774C9.57597 8.16337 9.2975 8.24709 9.07736 8.42176C8.85722 8.59643 8.71208 8.84883 8.67166 9.12724L8.13109 12.8507Z" fill="#6C63FF"/>
<path d="M3.25781 15.4862H11.1934C9.34215 10.5748 8.74519 6.00571 11.1934 2.09101C11.1513 0.915221 9.64613 -0.104083 8.47721 0.00852644C7.09668 0.141522 5.24155 1.15795 4.98293 2.52312L3.25781 15.4862Z" fill="#2F2E41"/>
<path d="M14.6145 22.546C15.524 22.546 16.2612 22.143 16.2612 21.646C16.2612 21.149 15.524 20.7461 14.6145 20.7461C13.705 20.7461 12.9678 21.149 12.9678 21.646C12.9678 22.143 13.705 22.546 14.6145 22.546Z" fill="#3F3D56"/>
<path d="M43.5147 40.1761L43.7103 39.9801C44.41 39.2791 44.4102 38.1448 43.7108 37.444C43.3721 37.1046 42.9218 36.9238 42.4427 36.9238C42.4425 36.9238 42.4422 36.9238 42.4421 36.9238C41.9628 36.9238 41.5122 37.1051 41.1732 37.4447L37.6231 40.9986C37.2836 41.3387 37.0967 41.7889 37.0967 42.2689C37.0967 42.7487 37.2834 43.2007 37.6224 43.5403C37.9612 43.8798 38.4116 44.0679 38.8905 44.0679C38.8908 44.0679 38.8909 44.0679 38.8912 44.0679C39.3699 44.0679 39.8199 43.8796 40.1583 43.5405L40.7359 42.961C40.9661 44.0084 41.8993 44.7942 43.0129 44.7942C44.2987 44.7942 45.3448 43.7459 45.3448 42.4576C45.3448 41.342 44.5601 40.4068 43.5147 40.1761ZM41.4269 37.6989C41.6982 37.4271 42.0588 37.2833 42.4422 37.2833C42.4424 37.2833 42.4426 37.2833 42.4427 37.2833C42.8259 37.2833 43.1862 37.4267 43.4571 37.6981C44.0167 38.2587 44.0165 39.1681 43.4566 39.729L43.0611 40.1237C43.045 40.1234 43.029 40.1218 43.0129 40.1218C42.2977 40.1218 41.657 40.4459 41.2288 40.9554L39.6999 39.4264L41.4269 37.6989ZM40.6809 42.4575C40.6809 42.4737 40.6818 42.4904 40.6821 42.5066L39.9046 43.2863C39.6339 43.5575 39.274 43.7084 38.8911 43.7084C38.891 43.7084 38.8908 43.7084 38.8906 43.7084C38.5075 43.7084 38.1471 43.557 37.876 43.2854C37.6048 43.0137 37.4555 42.6519 37.4554 42.2682C37.4554 41.8842 37.605 41.5223 37.8768 41.2501L39.4462 39.6775L41.0167 41.2509C40.8037 41.6033 40.6809 42.0162 40.6809 42.4575ZM43.0129 44.4344C41.9248 44.4344 41.0397 43.5475 41.0397 42.4574C41.0397 41.9769 41.2118 41.5361 41.4973 41.1931L44.2748 43.9759C43.9324 44.2619 43.4924 44.4344 43.0129 44.4344ZM44.5284 43.7217L41.751 40.9389C42.0933 40.6529 42.5333 40.4804 43.0129 40.4804C44.1009 40.4804 44.9861 41.3673 44.9861 42.4574C44.9861 42.9379 44.814 43.3787 44.5284 43.7217Z" fill="#6C63FF"/>
<path d="M30.7452 41.6672H32.7185C32.8744 41.6672 33.0008 41.5406 33.0008 41.3844C33.0008 41.2282 32.8744 41.1016 32.7185 41.1016H30.7452C30.5893 41.1016 30.4629 41.2282 30.4629 41.3844C30.4629 41.5406 30.5893 41.6672 30.7452 41.6672Z" fill="#6C63FF"/>
<path d="M30.7452 42.6652H32.7185C32.8744 42.6652 33.0008 42.5386 33.0008 42.3824C33.0008 42.2262 32.8744 42.0996 32.7185 42.0996H30.7452C30.5893 42.0996 30.4629 42.2262 30.4629 42.3824C30.4629 42.5386 30.5893 42.6652 30.7452 42.6652Z" fill="#6C63FF"/>
<path d="M34.4191 37.7148H29.044C28.8881 37.7148 28.7617 37.8415 28.7617 37.9976V39.2459C28.7617 39.402 28.8881 39.5287 29.044 39.5287H29.3445C29.3445 39.6655 29.3445 44.3913 29.3445 44.5208C29.3445 44.677 29.4709 44.8036 29.6268 44.8036H33.8363C33.9922 44.8036 34.1186 44.677 34.1186 44.5208C34.1186 44.3899 34.1186 39.6645 34.1186 39.5287H34.4191C34.575 39.5287 34.7014 39.4021 34.7014 39.2459V37.9976C34.7014 37.8415 34.575 37.7148 34.4191 37.7148ZM32.5513 38.2804H33.0618V38.9631H32.5513V38.2804ZM31.4763 38.2804H31.9868V38.9631H31.4763V38.2804ZM30.4013 38.2804H30.9118V38.9631H30.4013V38.2804ZM29.8368 38.9631C29.5749 38.9631 29.5884 38.9631 29.3262 38.9631V38.2804H29.8368V38.9631ZM33.554 44.238H29.909V43.7462H33.554V44.238ZM33.554 43.1806H29.909V40.586H33.554V43.1806ZM33.554 40.0204H29.909V39.5287H33.554V40.0204ZM34.1369 38.9631C33.8748 38.9631 33.8882 38.9631 33.6263 38.9631V38.2804H34.1369V38.9631Z" fill="#6C63FF"/>
<path d="M46.6506 45.7215H23.3214L18.3812 22.3233H14.165V21.2734H19.2305L24.1707 44.6716H46.6506V45.7215Z" fill="#3F3D56"/>
<path d="M26.7407 49.9957C27.9808 49.9957 28.9862 48.9885 28.9862 47.7459C28.9862 46.5034 27.9808 45.4961 26.7407 45.4961C25.5005 45.4961 24.4951 46.5034 24.4951 47.7459C24.4951 48.9885 25.5005 49.9957 26.7407 49.9957Z" fill="#3F3D56"/>
<path d="M43.5073 49.9957C44.7475 49.9957 45.7528 48.9885 45.7528 47.7459C45.7528 46.5034 44.7475 45.4961 43.5073 45.4961C42.2671 45.4961 41.2617 46.5034 41.2617 47.7459C41.2617 48.9885 42.2671 49.9957 43.5073 49.9957Z" fill="#3F3D56"/>
<path d="M46.2254 45.2275H23.5273L19.5225 25.3984H49.9837C50.1391 25.3985 50.2927 25.4322 50.4339 25.4974C50.5751 25.5625 50.7005 25.6575 50.8015 25.7759C50.9025 25.8942 50.9768 26.0331 51.0191 26.183C51.0615 26.3328 51.0709 26.49 51.0468 26.6439L47.2883 44.3167C47.2496 44.571 47.1209 44.8028 46.9258 44.97C46.7307 45.1372 46.4821 45.2285 46.2254 45.2275ZM23.7738 44.9275H46.2254C46.4107 44.9283 46.5901 44.8623 46.7309 44.7417C46.8717 44.621 46.9645 44.4536 46.9925 44.2701L50.7509 26.5973C50.7683 26.4863 50.7616 26.3728 50.731 26.2646C50.7005 26.1565 50.6469 26.0562 50.574 25.9708C50.5011 25.8854 50.4105 25.8168 50.3086 25.7698C50.2067 25.7227 50.0959 25.6984 49.9837 25.6984H19.8859L23.7738 44.9275Z" fill="#3F3D56"/>
<path d="M27.9401 45.1635L25.3174 25.5723L25.6127 25.5234L28.2355 45.1146L27.9401 45.1635Z" fill="#3F3D56"/>
<path d="M42.5232 45.0126L42.2275 44.9646L44.7737 25.5234L45.0693 25.5714L42.5232 45.0126Z" fill="#3F3D56"/>
<path d="M35.5758 25.5469H35.2764V45.138H35.5758V25.5469Z" fill="#3F3D56"/>
<path d="M21.0515 30.7977L21.0508 31.0977L50.0329 31.168L50.0336 30.868L21.0515 30.7977Z" fill="#3F3D56"/>
<path d="M47.9878 40.0639L22.5264 40.2383L22.5284 40.5383L47.9898 40.3639L47.9878 40.0639Z" fill="#3F3D56"/>
</svg>
