<svg width="44" height="54" viewBox="0 0 44 54" fill="none" xmlns="http://www.w3.org/2000/svg">
<path d="M40.6535 0.00034283H17.3961C16.2737 0.000294984 15.1848 0.33264 14.3082 0.942745C13.4317 1.55285 12.8197 2.4044 12.5728 3.35743L0.821473 48.73C0.693292 49.2249 0.691032 49.7382 0.814853 50.234C0.938674 50.7297 1.18558 51.1959 1.53825 51.5998C1.89092 52.0037 2.34083 52.3355 2.85642 52.5721C3.37201 52.8086 3.94079 52.9441 4.5229 52.969L28.4319 53.9944C29.7121 54.0493 30.9716 53.6969 31.9752 53.0029C32.9789 52.3088 33.6581 51.3207 33.8863 50.2227L40.5528 18.1439L41.0488 18.2672L42.3247 12.1871L41.8142 12.076L43.675 3.12159C43.7547 2.73804 43.7363 2.3439 43.6209 1.96728C43.5056 1.59065 43.2962 1.24081 43.0078 0.942695C42.7193 0.644581 42.3588 0.405538 41.952 0.242606C41.5452 0.0796748 41.1022 -0.00313167 40.6544 9.0556e-05L40.6535 0.00034283Z" fill="#3F3D56"/>
<path d="M20.4577 0.978516H17.7431C16.9635 0.978523 16.2073 1.21062 15.6001 1.63629C14.9928 2.06195 14.5711 2.65558 14.4049 3.31863L3.12487 48.321C3.0599 48.5801 3.05994 48.8484 3.125 49.1075C3.19007 49.3666 3.31862 49.6104 3.50187 49.8223C3.68512 50.0341 3.91875 50.2091 4.18681 50.3351C4.45486 50.4612 4.75102 50.5354 5.05504 50.5527L28.8863 51.9123C29.5586 51.9507 30.2236 51.7722 30.7544 51.411C31.2852 51.0498 31.6446 50.5311 31.7641 49.9539L41.3893 3.43953C41.4516 3.13848 41.4373 2.82919 41.3472 2.53349C41.2572 2.2378 41.0937 1.96291 40.8683 1.72821C40.6429 1.49352 40.3611 1.30474 40.0428 1.1752C39.7244 1.04566 39.3773 0.978523 39.0258 0.978516H36.4506C36.2013 0.978509 35.959 1.05003 35.7611 1.18201C35.5633 1.31399 35.4209 1.49906 35.3561 1.70858C35.2989 1.8936 35.1732 2.05704 34.9984 2.17357C34.8237 2.29011 34.6097 2.35322 34.3895 2.35315H22.1634C21.7324 2.35314 21.3174 2.21156 21.0011 1.95672C20.6849 1.70187 20.4908 1.35253 20.4577 0.978516Z" fill="white"/>
<path d="M33.6323 32.4385C33.6787 32.4399 33.724 32.4267 33.7602 32.4014C33.7963 32.3761 33.8208 32.3404 33.8291 32.3007L39.0992 6.98228C39.1043 6.95822 39.1033 6.93349 39.0963 6.9098C39.0894 6.8861 39.0766 6.86399 39.0589 6.84497C39.0414 6.8261 39.0194 6.81082 38.9943 6.80022C38.9692 6.78962 38.9418 6.78396 38.9139 6.78363L14.937 6.53711H14.9347C14.8912 6.53743 14.8491 6.55061 14.8153 6.57448C14.7815 6.59836 14.758 6.63152 14.7487 6.66853L8.53585 31.1651C8.52978 31.189 8.52971 31.2138 8.53565 31.2377C8.54159 31.2617 8.5534 31.2842 8.57026 31.3038C8.58696 31.3232 8.60838 31.3392 8.63299 31.3506C8.6576 31.3621 8.68479 31.3686 8.71264 31.3698L33.6323 32.4385Z" fill="#E6E6E6"/>
<path d="M12.8241 34.0762C12.8022 34.0762 12.7811 34.0826 12.764 34.0944C12.7469 34.1062 12.735 34.1227 12.73 34.1412L12.5055 34.9789C12.5023 34.9907 12.5021 35.003 12.5049 35.0149C12.5077 35.0268 12.5134 35.0381 12.5217 35.0479C12.53 35.0577 12.5406 35.0658 12.5528 35.0717C12.565 35.0775 12.5785 35.0811 12.5925 35.082L25.2769 35.8667C25.3005 35.868 25.3237 35.8618 25.3425 35.8494C25.3612 35.8369 25.3741 35.8189 25.3787 35.7988L25.5947 34.8296C25.5973 34.8179 25.597 34.8058 25.5938 34.7941C25.5906 34.7825 25.5846 34.7715 25.5761 34.7621C25.5677 34.7526 25.557 34.7448 25.5449 34.7392C25.5327 34.7336 25.5193 34.7304 25.5055 34.7297L12.8299 34.0763L12.8241 34.0762Z" fill="#E6E6E6"/>
<path d="M28.2359 38.979C28.2588 38.9806 28.2816 38.9751 28.3002 38.9634C28.3188 38.9517 28.3321 38.9346 28.3375 38.9152L28.6124 37.944C28.6158 37.9321 28.6161 37.9197 28.6134 37.9077C28.6107 37.8957 28.605 37.8843 28.5967 37.8744C28.5885 37.8645 28.5778 37.8562 28.5655 37.8503C28.5532 37.8444 28.5395 37.8408 28.5254 37.84L12.3265 36.8538C12.3046 36.8523 12.2827 36.8574 12.2645 36.8683C12.2464 36.8793 12.2332 36.8953 12.2271 36.9138L11.9415 37.753C11.9374 37.765 11.9364 37.7777 11.9387 37.79C11.9409 37.8024 11.9463 37.8141 11.9545 37.8245C11.9626 37.8348 11.9733 37.8434 11.9857 37.8497C11.9981 37.8559 12.012 37.8597 12.0263 37.8607L28.2359 38.979Z" fill="#E6E6E6"/>
<path d="M27.3658 42.0903C27.3887 42.0919 27.4115 42.0864 27.4301 42.0747C27.4487 42.063 27.4619 42.046 27.4674 42.0266L27.7423 41.0554C27.7457 41.0435 27.746 41.0311 27.7433 41.019C27.7406 41.007 27.7349 40.9956 27.7266 40.9857C27.7183 40.9758 27.7077 40.9676 27.6953 40.9616C27.683 40.9557 27.6694 40.9522 27.6553 40.9513L11.4564 39.9651C11.4344 39.9636 11.4125 39.9687 11.3944 39.9797C11.3763 39.9906 11.3631 40.0066 11.357 40.0251L11.0713 40.8644C11.0673 40.8764 11.0663 40.889 11.0686 40.9014C11.0708 40.9137 11.0762 40.9255 11.0843 40.9358C11.0925 40.9461 11.1031 40.9547 11.1156 40.961C11.128 40.9673 11.1419 40.9711 11.1562 40.9721L27.3658 42.0903Z" fill="#E6E6E6"/>
<path d="M19.9049 47.414C19.928 47.4161 19.9511 47.4108 19.97 47.3991C19.9889 47.3875 20.0023 47.3702 20.0077 47.3506L20.5889 45.327C20.5923 45.3151 20.5928 45.3028 20.5902 45.2908C20.5875 45.2788 20.582 45.2675 20.5738 45.2576C20.5657 45.2476 20.5552 45.2394 20.543 45.2333C20.5308 45.2273 20.5173 45.2237 20.5033 45.2226L10.5556 44.4943C10.5324 44.493 10.5093 44.4988 10.4906 44.5108C10.4718 44.5228 10.4586 44.5402 10.4531 44.5599L9.95739 46.502C9.95441 46.5137 9.95431 46.5258 9.9571 46.5375C9.9599 46.5491 9.96552 46.5602 9.97359 46.5698C9.98166 46.5795 9.992 46.5875 10.0039 46.5934C10.0158 46.5994 10.0291 46.603 10.0427 46.6041L19.9049 47.414Z" fill="url(#paint0_linear_519_633)"/>
<defs>
<linearGradient id="paint0_linear_519_633" x1="19.776" y1="46.6086" x2="11.2225" y2="45.7608" gradientUnits="userSpaceOnUse">
<stop stop-color="#24B497"/>
<stop offset="1" stop-color="#42E6A5"/>
</linearGradient>
</defs>
</svg>
