<svg width="50" height="53" viewBox="0 0 50 53" fill="none" xmlns="http://www.w3.org/2000/svg">
<path d="M47.8346 52.5449H18.8438V52.6959H47.8346V52.5449Z" fill="#3F3D56"/>
<path d="M49.5338 24.8682C49.6063 24.9535 49.6601 25.053 49.6918 25.1603C49.7234 25.2677 49.7321 25.3805 49.7174 25.4914C49.7027 25.6024 49.6648 25.709 49.6063 25.8044C49.5477 25.8997 49.4698 25.9818 49.3775 26.0451L45.4776 28.7226L43.7604 29.8675C43.6628 29.9325 43.5446 29.9589 43.4286 29.9416C43.3127 29.9242 43.2073 29.8644 43.1331 29.7736C43.0898 29.7207 43.0585 29.6591 43.0414 29.5929C43.0243 29.5267 43.0217 29.4576 43.034 29.3904C43.0462 29.3231 43.0728 29.2593 43.1121 29.2034C43.1514 29.1474 43.2023 29.1007 43.2614 29.0664L44.9247 28.1006L47.8275 25.336L45.9614 23.3316L47.3437 22.2949L49.5338 24.8682Z" fill="#A0616A"/>
<path d="M40.3624 50.0791H39.4084L38.8418 42.2L41.2609 42.1309L40.3624 50.0791Z" fill="#A0616A"/>
<path d="M40.4319 52.6378C40.1776 52.7539 39.9645 51.8133 39.7499 52.0242C39.1498 52.614 38.2308 52.7424 37.4297 52.4849L37.7101 52.4818C37.6617 52.4662 37.617 52.441 37.5787 52.4077C37.5404 52.3744 37.5092 52.3337 37.4871 52.288C37.465 52.2423 37.4524 52.1925 37.4501 52.1418C37.4478 52.0911 37.4558 52.0404 37.4736 51.9929C37.4949 51.936 37.5298 51.8851 37.5751 51.8447C37.6204 51.8042 37.6749 51.7754 37.7339 51.7607L38.3721 51.6011L39.3743 49.8386L40.3974 49.7695C40.6255 50.0603 40.7846 50.399 40.8629 50.7602C40.9412 51.1213 40.9366 51.4955 40.8494 51.8547C40.7566 52.2336 40.6133 52.555 40.4319 52.6378Z" fill="#2F2E41"/>
<path d="M46.7149 50.0797H45.7609L45.1943 42.2006L47.6825 41.7168L46.7149 50.0797Z" fill="#A0616A"/>
<path d="M46.7845 52.6366C46.5301 52.7527 46.317 51.8121 46.1025 52.023C45.5023 52.6128 44.5833 52.7412 43.7822 52.4837L44.0626 52.4806C44.0143 52.465 43.9696 52.4398 43.9313 52.4065C43.8929 52.3732 43.8618 52.3325 43.8397 52.2868C43.8176 52.2411 43.805 52.1913 43.8026 52.1406C43.8003 52.0899 43.8083 52.0392 43.8261 51.9917C43.8475 51.9348 43.8823 51.8839 43.9276 51.8435C43.973 51.803 44.0275 51.7742 44.0864 51.7594L44.7247 51.5999L45.7268 49.8374L46.819 49.6992L46.8466 49.7443C47.0578 50.0846 47.1939 50.466 47.2459 50.8631C47.298 51.2602 47.2647 51.6638 47.1484 52.047C47.0576 52.3381 46.9339 52.5684 46.7845 52.6366Z" fill="#2F2E41"/>
<path d="M47.7957 22.4749C46.9185 22.597 46.3111 23.0774 46.0637 24.0358L44.4512 21.0585C44.3556 20.8693 44.3314 20.652 44.383 20.4463C44.4345 20.2407 44.5585 20.0606 44.7321 19.9389C44.9164 19.8098 45.1431 19.756 45.3657 19.7886C45.5883 19.8212 45.7901 19.9377 45.9296 20.1142L47.7957 22.4749Z" fill="#6C63FF"/>
<path d="M49.486 41.3715C45.5653 43.1063 41.5528 43.3197 37.46 42.2009C38.9545 36.4043 40.7192 31.1629 40.7084 26.8573L44.7171 26.5117L45.3343 27.4902C46.7987 29.8118 47.8095 32.3901 48.3132 35.0883L49.486 41.3715Z" fill="#2F2E41"/>
<path d="M42.9201 17.9399C44.0653 17.9399 44.9936 17.0116 44.9936 15.8664C44.9936 14.7213 44.0653 13.793 42.9201 13.793C41.775 13.793 40.8467 14.7213 40.8467 15.8664C40.8467 17.0116 41.775 17.9399 42.9201 17.9399Z" fill="#A0616A"/>
<path d="M45.2005 19.5311L42.6432 19.6693L42.2285 17.3885L44.302 17.043L45.2005 19.5311Z" fill="#A0616A"/>
<path d="M44.9248 26.8565L42.1232 26.9354L40.7088 27.1329C40.0145 24.8395 39.43 22.5513 40.847 20.6361L42.5058 18.9773L44.9939 18.9082L45.0269 18.927C45.422 19.1534 45.7282 19.5077 45.8951 19.9314C46.062 20.3551 46.0795 20.823 45.9449 21.2581C45.3274 23.2646 44.9308 25.1593 44.9248 26.8565Z" fill="#6C63FF"/>
<path d="M40.6396 33.2863L40.4658 35.6614C40.4565 35.7886 40.4016 35.9082 40.3111 35.9981C40.2206 36.088 40.1007 36.1422 39.9734 36.1506C39.9001 36.1555 39.8265 36.1451 39.7574 36.12C39.6884 36.0949 39.6253 36.0556 39.5722 36.0048C39.5191 35.9539 39.4773 35.8926 39.4492 35.8246C39.4212 35.7567 39.4076 35.6837 39.4093 35.6102L39.4647 33.2863L41.1925 26.7204L41.2617 22.7117L43.1969 22.6426L43.0587 27.2733L40.6396 33.2863Z" fill="#A0616A"/>
<path d="M43.4039 22.9865C42.5834 22.6528 41.8171 22.7646 41.123 23.4703L41.2181 20.0857C41.2301 19.874 41.318 19.6738 41.4656 19.5216C41.6132 19.3694 41.8107 19.2756 42.0219 19.2572C42.2461 19.2377 42.4692 19.3047 42.6456 19.4444C42.822 19.5841 42.9383 19.7859 42.9707 20.0086L43.4039 22.9865Z" fill="#6C63FF"/>
<path d="M47.3088 25.0941H40.9502C42.4335 21.1662 42.9119 17.5121 40.9502 14.3813C40.9839 13.4409 42.19 12.6257 43.1266 12.7158C44.2328 12.8222 45.7193 13.6351 45.9265 14.7269L47.3088 25.0941Z" fill="#2F2E41"/>
<path d="M27.0436 12.5437H26.7535V4.59846C26.7535 3.99458 26.6346 3.39662 26.4035 2.8387C26.1724 2.28079 25.8337 1.77386 25.4067 1.34685C24.9797 0.919847 24.4727 0.581127 23.9148 0.350033C23.3569 0.118939 22.7589 -1.80966e-06 22.1551 0H5.3221C4.71822 -1.33343e-06 4.12026 0.118941 3.56234 0.350035C3.00443 0.581129 2.4975 0.919849 2.07049 1.34686C1.64349 1.77386 1.30476 2.28079 1.07367 2.83871C0.842575 3.39662 0.723632 3.99459 0.723633 4.59846V48.1864C0.723632 48.7903 0.842575 49.3882 1.07367 49.9461C1.30476 50.5041 1.64349 51.011 2.07049 51.438C2.4975 51.865 3.00443 52.2037 3.56234 52.4348C4.12026 52.6659 4.71822 52.7849 5.3221 52.7849H22.1551C22.7589 52.7849 23.3569 52.6659 23.9148 52.4348C24.4727 52.2037 24.9797 51.865 25.4067 51.438C25.8337 51.011 26.1724 50.5041 26.4035 49.9461C26.6346 49.3882 26.7535 48.7903 26.7535 48.1864V18.1992H27.0436V12.5437Z" fill="#3F3D56"/>
<path d="M22.3403 1.19727H20.143C20.2441 1.445 20.2827 1.71378 20.2554 1.97993C20.2281 2.24608 20.1357 2.50143 19.9865 2.72349C19.8372 2.94555 19.6357 3.12751 19.3996 3.25332C19.1635 3.37914 18.9 3.44495 18.6325 3.44497H8.98908C8.72153 3.44495 8.4581 3.37914 8.22198 3.25332C7.98586 3.12751 7.7843 2.94555 7.63507 2.72349C7.48583 2.50143 7.3935 2.24608 7.3662 1.97993C7.3389 1.71378 7.37747 1.445 7.47851 1.19727H5.42627C4.9753 1.19727 4.52875 1.28609 4.11211 1.45867C3.69546 1.63125 3.31689 1.8842 2.99801 2.20308C2.67912 2.52196 2.42617 2.90053 2.25359 3.31717C2.08101 3.73382 1.99219 4.18037 1.99219 4.63134V48.1553C1.99219 48.6063 2.08101 49.0528 2.25359 49.4695C2.42617 49.8861 2.67912 50.2647 2.99801 50.5836C3.31689 50.9025 3.69546 51.1554 4.11211 51.328C4.52875 51.5006 4.9753 51.5894 5.42627 51.5894H22.3403C22.7913 51.5894 23.2378 51.5006 23.6545 51.328C24.0711 51.1554 24.4497 50.9025 24.7686 50.5836C25.0874 50.2647 25.3404 49.8861 25.513 49.4695C25.6856 49.0528 25.7744 48.6063 25.7744 48.1553V4.63134C25.7744 3.72056 25.4126 2.84709 24.7686 2.20308C24.1245 1.55907 23.2511 1.19726 22.3403 1.19727Z" fill="white"/>
<path d="M22.804 7.99609H4.96191V23.2997H22.804V7.99609Z" fill="#E6E6E6"/>
<path d="M10.2567 26.4899C10.9777 26.4899 11.5622 25.9054 11.5622 25.1844C11.5622 24.4634 10.9777 23.8789 10.2567 23.8789C9.53567 23.8789 8.95117 24.4634 8.95117 25.1844C8.95117 25.9054 9.53567 26.4899 10.2567 26.4899Z" fill="#6C63FF"/>
<path d="M10.909 25.0772H10.3651V24.5332H10.1475V25.0772H9.60352V25.2948H10.1475V25.8387H10.3651V25.2948H10.909V25.0772Z" fill="white"/>
<path d="M17.1473 26.4899C17.8683 26.4899 18.4528 25.9054 18.4528 25.1844C18.4528 24.4634 17.8683 23.8789 17.1473 23.8789C16.4263 23.8789 15.8418 24.4634 15.8418 25.1844C15.8418 25.9054 16.4263 26.4899 17.1473 26.4899Z" fill="#6C63FF"/>
<path d="M17.7998 25.2938V25.0762H16.4943V25.2938H17.7998Z" fill="white"/>
<path d="M22.804 29.5352H4.96191V44.8387H22.804V29.5352Z" fill="#E6E6E6"/>
<path d="M10.2567 48.031C10.9777 48.031 11.5622 47.4465 11.5622 46.7254C11.5622 46.0044 10.9777 45.4199 10.2567 45.4199C9.53567 45.4199 8.95117 46.0044 8.95117 46.7254C8.95117 47.4465 9.53567 48.031 10.2567 48.031Z" fill="#6C63FF"/>
<path d="M10.909 46.6162H10.3651V46.0723H10.1475V46.6162H9.60352V46.8338H10.1475V47.3778H10.3651V46.8338H10.909V46.6162Z" fill="white"/>
<path d="M17.1473 48.031C17.8683 48.031 18.4528 47.4465 18.4528 46.7254C18.4528 46.0044 17.8683 45.4199 17.1473 45.4199C16.4263 45.4199 15.8418 46.0044 15.8418 46.7254C15.8418 47.4465 16.4263 48.031 17.1473 48.031Z" fill="#6C63FF"/>
<path d="M17.7998 46.8348V46.6172H16.4943V46.8348H17.7998Z" fill="white"/>
<g clip-path="url(#clip0_519_652)">
<path d="M12.9396 16.6429H15.5694C15.7771 16.6429 15.9456 16.4745 15.9456 16.2668C15.9456 16.0591 15.7771 15.8906 15.5694 15.8906H12.9396C12.7319 15.8906 12.5635 16.059 12.5635 16.2668C12.5635 16.4745 12.7319 16.6429 12.9396 16.6429Z" fill="#21AEA6"/>
<path d="M12.9396 17.9711H15.5694C15.7771 17.9711 15.9456 17.8027 15.9456 17.5949C15.9456 17.3872 15.7771 17.2188 15.5694 17.2188H12.9396C12.7319 17.2188 12.5635 17.3872 12.5635 17.5949C12.5635 17.8027 12.7319 17.9711 12.9396 17.9711Z" fill="#21AEA6"/>
<path d="M17.8362 11.3867H10.673C10.4653 11.3867 10.2969 11.5551 10.2969 11.7629V13.4231C10.2969 13.6309 10.4653 13.7993 10.673 13.7993H11.0736C11.0736 13.9813 11.0736 20.2671 11.0736 20.4393C11.0736 20.6471 11.242 20.8155 11.4497 20.8155H17.0595C17.2672 20.8155 17.4356 20.6471 17.4356 20.4393C17.4356 20.2653 17.4356 13.98 17.4356 13.7993H17.8362C18.0439 13.7993 18.2123 13.6309 18.2123 13.4231V11.7629C18.2123 11.5551 18.0439 11.3867 17.8362 11.3867ZM15.3471 12.139H16.0274V13.047H15.3471V12.139ZM13.9144 12.139H14.5948V13.047H13.9144V12.139ZM12.4818 12.139H13.1621V13.047H12.4818V12.139ZM11.7295 13.047C11.3805 13.047 11.3985 13.047 11.0492 13.047V12.139H11.7295V13.047ZM16.6833 20.0632H11.8258V19.409H16.6833V20.0632ZM16.6833 18.6567H11.8258V15.2057H16.6833V18.6567ZM16.6833 14.4534H11.8258V13.7993H16.6833V14.4534ZM17.46 13.047C17.1107 13.047 17.1286 13.047 16.7797 13.047V12.139H17.46V13.047Z" fill="#21AEA6"/>
</g>
<g clip-path="url(#clip1_519_652)">
<path d="M16.6191 35.9217L16.8737 35.6672C17.7843 34.7566 17.7846 33.2832 16.8743 32.3729C16.4335 31.9321 15.8475 31.6973 15.224 31.6973C15.2237 31.6973 15.2234 31.6973 15.2231 31.6973C14.5995 31.6973 14.013 31.9327 13.5718 32.3739L8.95171 36.9901C8.50986 37.4319 8.26658 38.0166 8.2666 38.6402C8.26666 39.2633 8.50961 39.8506 8.95072 40.2917C9.39169 40.7327 9.97784 40.977 10.6012 40.977C10.6015 40.977 10.6017 40.977 10.602 40.977C11.2249 40.977 11.8106 40.7323 12.2511 40.2919L13.0027 39.5392C13.3023 40.8997 14.5168 41.9204 15.966 41.9204C17.6394 41.9204 19.0008 40.5587 19.0008 38.8853C19.0009 37.4361 17.9796 36.2214 16.6191 35.9217ZM13.902 32.704C14.2551 32.351 14.7243 32.1642 15.2233 32.1642C15.2236 32.1642 15.2238 32.1642 15.224 32.1642C15.7227 32.1642 16.1916 32.3505 16.5442 32.7031C17.2724 33.4312 17.2721 34.6124 16.5435 35.341L16.0288 35.8538C16.0078 35.8533 15.987 35.8512 15.966 35.8512C15.0352 35.8512 14.2014 36.2722 13.6443 36.934L11.6545 34.9479L13.902 32.704ZM12.9311 38.8851C12.9311 38.9062 12.9323 38.9279 12.9327 38.9489L11.9209 39.9617C11.5686 40.314 11.1002 40.5101 10.6019 40.5101C10.6017 40.5101 10.6015 40.5101 10.6013 40.5101C10.1026 40.5101 9.63369 40.3134 9.28086 39.9605C8.92791 39.6076 8.73354 39.1377 8.73348 38.6393C8.73346 38.1404 8.92816 37.6704 9.28183 37.3168L11.3243 35.2741L13.3681 37.3178C13.0909 37.7756 12.9311 38.312 12.9311 38.8851ZM15.966 41.453C14.55 41.453 13.398 40.301 13.398 38.885C13.398 38.2609 13.6221 37.6883 13.9936 37.2428L17.6083 40.8574C17.1627 41.229 16.5901 41.453 15.966 41.453ZM17.9384 40.5273L14.3237 36.9126C14.7692 36.5411 15.3419 36.3171 15.966 36.3171C17.382 36.3171 18.534 37.4691 18.534 38.885C18.534 39.5092 18.31 40.0818 17.9384 40.5273Z" fill="#21AEA6"/>
</g>
<defs>
<clipPath id="clip0_519_652">
<rect width="9.42874" height="9.42874" fill="white" transform="translate(9.57129 11.3867)"/>
</clipPath>
<clipPath id="clip1_519_652">
<rect width="10.7343" height="10.7343" fill="white" transform="translate(8.2666 31.4062)"/>
</clipPath>
</defs>
</svg>
